<svg width="40" height="32" viewBox="0 0 40 32" fill="none" xmlns="http://www.w3.org/2000/svg">
<path d="M33 28H7C6.45 28 6 28.45 6 29V31C6 31.55 6.45 32 7 32H33C33.55 32 34 31.55 34 31V29C34 28.45 33.55 28 33 28ZM37 8C35.3438 8 34 9.34375 34 11C34 11.4438 34.1 11.8562 34.275 12.2375L29.75 14.95C28.7875 15.525 27.5437 15.2 26.9875 14.225L21.8937 5.3125C22.5625 4.7625 23 3.9375 23 3C23 1.34375 21.6562 0 20 0C18.3438 0 17 1.34375 17 3C17 3.9375 17.4375 4.7625 18.1063 5.3125L13.0125 14.225C12.4563 15.2 11.2063 15.525 10.25 14.95L5.73125 12.2375C5.9 11.8625 6.00625 11.4438 6.00625 11C6.00625 9.34375 4.6625 8 3.00625 8C1.35 8 0 9.34375 0 11C0 12.6562 1.34375 14 3 14C3.1625 14 3.325 13.975 3.48125 13.95L8 26H32L36.5187 13.95C36.675 13.975 36.8375 14 37 14C38.6562 14 40 12.6562 40 11C40 9.34375 38.6562 8 37 8Z" fill="#FFFF00"/>
</svg>
