<svg width="80" height="80" viewBox="0 0 80 80" fill="none" xmlns="http://www.w3.org/2000/svg">
<g clip-path="url(#clip0_1122_2227)">
<g filter="url(#filter0_d_1122_2227)">
<path d="M40 5C30.7521 5.11157 21.9144 8.83488 15.3746 15.3746C8.83488 21.9144 5.11157 30.7521 5 40C5.11157 49.2479 8.83488 58.0856 15.3746 64.6254C21.9144 71.1651 30.7521 74.8884 40 75C49.2479 74.8884 58.0856 71.1651 64.6254 64.6254C71.1651 58.0856 74.8884 49.2479 75 40C74.8884 30.7521 71.1651 21.9144 64.6254 15.3746C58.0856 8.83488 49.2479 5.11157 40 5ZM60 42.5H42.5V60H37.5V42.5H20V37.5H37.5V20H42.5V37.5H60V42.5Z" fill="#85B4F2"/>
</g>
</g>
<defs>
<filter id="filter0_d_1122_2227" x="1" y="5" width="78" height="78" filterUnits="userSpaceOnUse" color-interpolation-filters="sRGB">
<feFlood flood-opacity="0" result="BackgroundImageFix"/>
<feColorMatrix in="SourceAlpha" type="matrix" values="0 0 0 0 0 0 0 0 0 0 0 0 0 0 0 0 0 0 127 0" result="hardAlpha"/>
<feOffset dy="4"/>
<feGaussianBlur stdDeviation="2"/>
<feComposite in2="hardAlpha" operator="out"/>
<feColorMatrix type="matrix" values="0 0 0 0 0 0 0 0 0 0 0 0 0 0 0 0 0 0 0.25 0"/>
<feBlend mode="normal" in2="BackgroundImageFix" result="effect1_dropShadow_1122_2227"/>
<feBlend mode="normal" in="SourceGraphic" in2="effect1_dropShadow_1122_2227" result="shape"/>
</filter>
<clipPath id="clip0_1122_2227">
<rect width="80" height="80" fill="white"/>
</clipPath>
</defs>
</svg>
