<svg width="40" height="40" viewBox="0 0 40 40" fill="none" xmlns="http://www.w3.org/2000/svg">
<path d="M20 1.25C9.645 1.25 1.25 9.645 1.25 20C1.25 30.355 9.645 38.75 20 38.75C30.355 38.75 38.75 30.355 38.75 20C38.75 9.645 30.355 1.25 20 1.25ZM11.25 10.4519L14.1369 9.375H16.25V18.125H13.7844V11.1925H13.75L11.6687 11.9869L11.25 10.4519ZM14.5044 30.625C13.3594 30.625 12.3938 30.3381 11.875 30.0256L12.2975 28.5413C12.6638 28.7231 13.5106 29.0613 14.3544 29.0613C15.4287 29.0613 15.9744 28.5681 15.9744 27.9294C15.9744 27.0956 15.1025 26.7175 14.19 26.7175H13.3463V25.2981H14.1506C14.8438 25.2856 15.7275 25.0394 15.7275 24.3225C15.7275 23.8144 15.2931 23.4375 14.4212 23.4375C13.7 23.4375 12.9369 23.7369 12.5694 23.9456L12.1481 22.5125C12.6794 22.1875 13.7412 21.875 14.8837 21.875C16.7756 21.875 17.8256 22.8256 17.8256 23.9831C17.8256 24.8825 17.2944 25.5856 16.2044 25.9506V25.975C17.2681 26.1588 18.125 26.9263 18.125 28.0338C18.125 29.53 16.7506 30.625 14.5044 30.625ZM22.1875 16.9081L23.3275 15.9012C25.2525 14.2206 26.1888 13.2538 26.2144 12.2475C26.2144 11.5456 25.7812 10.9888 24.7644 10.9888C24.005 10.9888 23.3412 11.36 22.8781 11.705L22.2969 10.2619C22.9613 9.77125 23.9912 9.37437 25.1838 9.37437C27.1769 9.37437 28.2756 10.5119 28.2756 12.0744C28.2756 13.5175 27.2038 14.6694 25.9294 15.7819L25.1163 16.4425V16.4694H28.4375V18.125H22.1875V16.9081ZM28.75 28.5387H27.605V30.625H25.4844V28.5387H21.25V27.2056L24.8681 21.875H27.605V27.0031H28.75V28.5387Z" fill="#05C7F2"/>
<path d="M24.6181 25.0669L23.3387 26.9775V27.0032H25.485V25.0669C25.485 24.5394 25.5144 24.0025 25.5581 23.4363H25.5006C25.1919 24.0025 24.9412 24.5144 24.6181 25.0669Z" fill="#05C7F2"/>
</svg>
