<svg width="40" height="40" viewBox="0 0 40 40" fill="none" xmlns="http://www.w3.org/2000/svg">
<path d="M31.6665 18.3333H11.8998L17.9498 11.0667C18.2327 10.7263 18.3688 10.2875 18.3282 9.84679C18.2876 9.40608 18.0735 8.99956 17.7332 8.71667C17.3928 8.43377 16.954 8.29767 16.5133 8.3383C16.0726 8.37893 15.6661 8.59297 15.3832 8.93333L7.04984 18.9333C6.99377 19.0129 6.94364 19.0964 6.89984 19.1833C6.89984 19.2667 6.89984 19.3167 6.78317 19.4C6.70763 19.5911 6.66807 19.7945 6.6665 20C6.66807 20.2055 6.70763 20.4089 6.78317 20.6C6.78317 20.6833 6.78317 20.7333 6.89984 20.8167C6.94364 20.9036 6.99377 20.9871 7.04984 21.0667L15.3832 31.0667C15.5399 31.2548 15.7361 31.4061 15.9579 31.5098C16.1797 31.6135 16.4217 31.6671 16.6665 31.6667C17.0559 31.6674 17.4333 31.5318 17.7332 31.2833C17.9019 31.1434 18.0414 30.9716 18.1437 30.7777C18.2459 30.5838 18.3089 30.3716 18.3291 30.1533C18.3492 29.935 18.3261 29.7149 18.261 29.5055C18.1959 29.2962 18.0902 29.1017 17.9498 28.9333L11.8998 21.6667H31.6665C32.1085 21.6667 32.5325 21.4911 32.845 21.1785C33.1576 20.8659 33.3332 20.442 33.3332 20C33.3332 19.558 33.1576 19.134 32.845 18.8215C32.5325 18.5089 32.1085 18.3333 31.6665 18.3333Z" fill="white"/>
</svg>
