<svg width="40" height="40" viewBox="0 0 40 40" fill="none" xmlns="http://www.w3.org/2000/svg">
<path d="M5 13.3333V31.6667C5 35.335 7.99 36.6667 10 36.6667H35V33.3333H10.02C9.25 33.3133 8.33333 33.01 8.33333 31.6667C8.33333 30.3233 9.25 30.02 10.02 30H35V6.66667C35 4.82833 33.505 3.33333 31.6667 3.33333H10C7.99 3.33333 5 4.665 5 8.33333V13.3333ZM10 6.66667H31.6667V26.6667H8.33333V8.33333C8.33333 6.99 9.25 6.68667 10 6.66667Z" fill="#444345"/>
<path d="M19.9951 23.3333L25.5784 17.8517C25.9226 17.5206 26.1965 17.1234 26.3836 16.684C26.5707 16.2445 26.6671 15.7718 26.6671 15.2942C26.6671 14.8165 26.5707 14.3438 26.3836 13.9044C26.1965 13.4649 25.9226 13.0677 25.5784 12.7367C24.8844 12.0517 23.9485 11.6676 22.9734 11.6676C21.9983 11.6676 21.0624 12.0517 20.3684 12.7367L19.9951 13.1L19.6217 12.735C18.928 12.0501 17.9924 11.6661 17.0176 11.6661C16.0427 11.6661 15.1071 12.0501 14.4134 12.735C14.0691 13.0661 13.7953 13.4632 13.6082 13.9027C13.4211 14.3422 13.3247 14.8149 13.3247 15.2925C13.3247 15.7701 13.4211 16.2428 13.6082 16.6823C13.7953 17.1217 14.0691 17.5189 14.4134 17.85L19.9951 23.3333Z" fill="#444345"/>
</svg>
