<svg width="100" height="100" viewBox="0 0 100 100" fill="none" xmlns="http://www.w3.org/2000/svg">
<circle cx="50" cy="50" r="50" fill="#05C7F2"/>
<path d="M50 77.75C68.8122 77.75 84.0625 63.3923 84.0625 45.6812C84.0625 27.9702 68.8122 13.6125 50 13.6125C31.1878 13.6125 15.9375 27.9702 15.9375 45.6812C15.9375 63.3923 31.1878 77.75 50 77.75Z" fill="#312D2D"/>
<path d="M77.8938 53.6125C77.8938 53.6125 83.0813 54.5125 83.0813 60.1C83.0813 65.0312 79.2938 66.975 75.5125 66.975V53.6125H77.8938Z" fill="#DBA689"/>
<path d="M22.1063 53.6125C22.1063 53.6125 16.9188 54.5125 16.9188 60.1C16.9188 65.0312 20.7063 66.975 24.4875 66.975V53.6125H22.1063Z" fill="#DBA689"/>
<path d="M69.7438 36.8438C65.0188 30.9563 56.8875 28.4375 50 28.4375C43.1188 28.4375 34.9813 30.9625 30.2625 36.8438C25.6438 42.5938 23.225 50.025 23.2625 59.9937C23.3 68.0312 25.3625 74.2125 31.1938 79.075C36.5938 83.5812 42.8375 86.0125 49.6 86.0125C56.25 86.0125 63.5875 83.6875 68.7875 79.1125C74.4938 74.0938 76.7063 68.0312 76.7438 59.9937C76.7813 50.0187 74.35 42.5938 69.7438 36.8438Z" fill="#FADCBC"/>
<path d="M53.9062 66.025C52.5312 66.4125 51.1062 66.6063 50 66.6063C48.8937 66.6063 47.4687 66.4188 46.0937 66.025C45.5062 65.8563 45.275 66.4188 45.4875 66.7875C45.925 67.5563 47.6812 69.1063 50 69.1063C52.3187 69.1063 54.075 67.5563 54.5125 66.7875C54.725 66.4188 54.4937 65.8625 53.9062 66.025Z" fill="#DBA689"/>
<path d="M58.0813 72.375H50H41.9188C40.9938 72.375 40.5938 73 41.2063 73.9312C42.0625 75.2375 45.25 77.75 50 77.75C54.75 77.75 57.9375 75.2375 58.7938 73.9312C59.4063 73 59.0125 72.375 58.0813 72.375Z" fill="#513F35"/>
<path d="M39.3 60.225C39.3 62.6063 37.7062 64.5375 35.7312 64.5375C33.7562 64.5375 32.15 62.6063 32.15 60.225C32.15 57.8375 33.7562 55.9062 35.7312 55.9062C37.7062 55.9062 39.3 57.8375 39.3 60.225Z" fill="#444444"/>
<path d="M67.85 60.225C67.85 62.6063 66.2563 64.5375 64.2813 64.5375C62.3063 64.5375 60.7 62.6063 60.7 60.225C60.7 57.8375 62.3063 55.9062 64.2813 55.9062C66.25 55.9062 67.85 57.8375 67.85 60.225Z" fill="#444444"/>
<path d="M21.7813 58.375C21.7813 58.375 29.5438 50.2437 32.3938 47.5062C32.575 47.3312 32.8688 47.4812 32.8438 47.7312C32.7313 48.8625 32.6438 50.1 32.6 50.85C32.5813 51.2 32.8938 51.475 33.2375 51.4125C38.8125 50.3563 44.175 48.0375 45.6188 47.3875C45.7938 47.3063 45.9875 47.4437 45.9813 47.6437C45.95 48.675 45.9625 49.6625 45.975 50.2688C45.9813 50.5938 46.275 50.8375 46.6 50.7875C51.7125 50 55.975 47.9062 57.3875 47.15C57.7125 46.975 58.0875 46.9375 58.4375 47.0625C61.0875 48.0125 64.3063 49.8875 65.475 50.5938C65.7313 50.75 66.0625 50.6625 66.2125 50.4C66.6625 49.6 67.275 48.3563 67.5625 47.7688C67.6438 47.6063 67.85 47.5625 67.9813 47.6937C72.15 51.8125 78.225 58.3813 78.225 58.3813L82.5188 44.5938C82.5188 44.5938 75.5625 20.0625 51.3938 20.0625C27.225 20.0625 18.0688 46.2313 18.0688 46.2313L21.7813 58.375Z" fill="#312D2D"/>
</svg>
