<?xml version="1.0" encoding="iso-8859-1"?>
<!-- Generator: Adobe Illustrator 19.0.0, SVG Export Plug-In . SVG Version: 6.00 Build 0)  -->
<svg version="1.1" id="Capa_1" xmlns="http://www.w3.org/2000/svg" xmlns:xlink="http://www.w3.org/1999/xlink" x="0px" y="0px"
	 viewBox="0 0 512 512" style="enable-background:new 0 0 512 512;" xml:space="preserve">
<path style="fill:#82C11F;" d="M468.242,408.315c-3.493,17.692-15.524,33.339-33.463,40.665c-0.195,0.072-0.401,0.144-0.606,0.226
	c-7.777,18.206-22.449,33.483-42.237,41.548c-18.884,7.706-39.031,7.459-56.734,0.843c-10.213-3.822-19.613-9.771-27.494-17.538
	c-7.295-7.192-13.284-15.956-17.394-26.035c-16.274-39.874,2.866-85.378,42.74-101.631c0.935-0.38,1.87-0.74,2.815-1.079
	c18.956-6.914,39-5.979,56.436,1.233c0.195-0.092,0.391-0.175,0.586-0.257c8.774-3.576,17.939-4.747,26.744-3.812
	c9.195,0.976,18.011,4.254,25.603,9.463c14.168-2.569,28.696,5.014,34.346,18.874C485.245,384.685,480.17,400.25,468.242,408.315z"
	/>
<g>
	<path style="fill:#679B04;" d="M335.87,345.314v140.961c0,1.839-0.236,3.617-0.668,5.322c-10.213-3.822-19.613-9.771-27.494-17.538
		c-7.295-7.192-13.284-15.956-17.394-26.035c-16.274-39.874,2.866-85.378,42.74-101.631
		C333.99,346.013,334.925,345.653,335.87,345.314z"/>
	<path style="fill:#679B04;" d="M377.258,447.872c-12.378,12.471-27.993,20.951-45.16,24.509c-8.09,1.691-16.291,2.244-24.391,1.679
		c-7.296-7.192-13.286-15.953-17.393-26.039c-16.27-39.867,2.868-85.374,42.741-101.63c19.777-8.067,40.95-7.422,59.253,0.153
		c0.192-0.086,0.385-0.173,0.586-0.255c8.772-3.578,17.936-4.751,26.737-3.813c0.849,17.276-5.038,34.216-16.598,47.311
		C401.882,411.717,392.824,432.194,377.258,447.872z"/>
	<path style="fill:#679B04;" d="M300.408,449.736c-3.047,0-5.935-1.814-7.157-4.81c-1.612-3.952,0.285-8.461,4.235-10.072
		L410.9,388.592c3.954-1.611,8.461,0.285,10.072,4.235c1.612,3.952-0.285,8.461-4.235,10.073l-113.414,46.262
		C302.367,449.551,301.38,449.736,300.408,449.736z"/>
</g>
<path style="fill:#BADB47;" d="M407.213,334.187c3.709,17.651-1.233,36.751-14.887,50.508c-0.154,0.154-0.308,0.288-0.473,0.452
	c-0.031,19.798-7.551,39.596-22.613,54.761c-9.617,9.688-21.134,16.315-33.37,19.901c-2.003,0.585-4.027,1.089-6.062,1.51
	c-24.75,5.137-51.525-1.849-70.809-20.98c-15.76-15.637-23.446-36.329-23.035-56.898c0.318-16.028,5.548-31.983,15.699-45.401
	c2.096-2.774,4.397-5.435,6.914-7.962c15.041-15.154,34.778-22.839,54.586-23.024c0.144-0.164,0.288-0.329,0.442-0.473
	c6.452-6.493,14.106-11.065,22.264-13.685c1.459-0.483,2.938-0.883,4.418-1.233c7.777-1.819,15.873-1.942,23.713-0.36
	c12.031-7.911,28.357-6.617,38.98,3.935C413.604,305.78,415.032,322.095,407.213,334.187z"/>
<g>
	<path style="fill:#82C11F;" d="M335.87,292.896v166.913c-2.003,0.585-4.027,1.089-6.062,1.51
		c-24.75,5.137-51.525-1.849-70.809-20.98c-15.76-15.637-23.446-36.329-23.035-56.898c0.318-16.028,5.548-31.983,15.699-45.401
		c2.096-2.774,4.397-5.435,6.914-7.962c15.041-15.154,34.778-22.839,54.586-23.024c0.144-0.164,0.288-0.329,0.442-0.473
		C320.058,300.088,327.712,295.516,335.87,292.896z"/>
	<path style="fill:#82C11F;" d="M265.936,438.578c-1.968,0-3.936-0.746-5.443-2.242c-3.028-3.005-3.047-7.897-0.041-10.927
		l86.276-86.943c3.005-3.03,7.897-3.048,10.927-0.041c3.028,3.005,3.047,7.897,0.041,10.927l-86.276,86.943
		C269.91,437.816,267.923,438.578,265.936,438.578z"/>
</g>
<path style="fill:#E3F4FF;" d="M324.57,228.65v257.623c0,5.682-4.603,10.274-10.274,10.274H123.465
	c-5.671,0-10.274-4.592-10.274-10.274V228.65c0-33.206,9.031-65.785,26.106-94.265l1.089-1.819
	c5.517-9.206,10.192-18.822,13.993-28.768c2.086-5.445,3.904-10.983,5.456-16.593c4.387-15.853,6.647-32.302,6.647-48.905h104.796
	c0,22.48,4.13,44.672,12.103,65.497c3.801,9.945,8.476,19.562,13.993,28.768l1.089,1.819
	C315.539,162.865,324.57,195.444,324.57,228.65z"/>
<path style="fill:#FFEEE1;" d="M324.567,228.65v257.623c0,5.682-4.603,10.274-10.274,10.274H123.462
	c-5.671,0-10.274-4.592-10.274-10.274V228.65c0-33.206,9.031-65.785,26.106-94.265l1.089-1.819
	c5.517-9.206,10.192-18.822,13.993-28.768h129.002c3.801,9.945,8.476,19.562,13.993,28.768l1.089,1.819
	C315.536,162.865,324.567,195.444,324.567,228.65z"/>
<g>
	<path style="fill:#FEDFC5;" d="M182.805,349.289l-20.63,147.259h-38.713c-5.671,0-10.274-4.592-10.274-10.274v-161.55h48.237
		c6.247,0,12.185,2.702,16.285,7.418C181.808,336.857,183.668,343.104,182.805,349.289z"/>
	<path style="fill:#FEDFC5;" d="M324.57,228.65v257.623c0,5.682-4.603,10.274-10.274,10.274H160.914
		c147.834-109.286,117.31-325.309,103.46-392.748h19.007c3.801,9.945,8.476,19.562,13.993,28.768l1.089,1.819
		C315.539,162.865,324.57,195.444,324.57,228.65z"/>
</g>
<path style="fill:#64BDFF;" d="M284.234,50.634H153.527c-5.674,0-10.274-4.6-10.274-10.274V14.366
	C143.253,6.432,149.685,0,157.619,0h122.524c7.934,0,14.366,6.432,14.366,14.366V40.36
	C294.508,46.034,289.908,50.634,284.234,50.634z"/>
<path style="fill:#E3F4FF;" d="M30.201,347.727l7.264,51.833l14.517,103.594c0.709,5.075,5.055,8.846,10.171,8.846h77.498
	c5.127,0,9.462-3.771,10.182-8.846L164.34,399.56l7.264-51.833c0.873-6.175-3.925-11.702-10.171-11.702H40.383
	C34.136,336.025,29.338,341.553,30.201,347.727z"/>
<g>
	<path style="fill:#FFEEE1;" d="M37.465,399.56l14.517,103.594c0.709,5.075,5.055,8.846,10.171,8.846h77.498
		c5.127,0,9.462-3.771,10.182-8.846L164.34,399.56H37.465z"/>
	<path style="fill:#FFEEE1;" d="M284.565,455.164c-4.268,0-7.774-3.459-7.774-7.726c0-4.268,3.41-7.726,7.678-7.726h0.096
		c4.268,0,7.726,3.459,7.726,7.726C292.291,451.705,288.832,455.164,284.565,455.164z"/>
	<path style="fill:#FFEEE1;" d="M259.274,470.817c-4.229,0-7.726-3.404-7.772-7.644c-0.045-4.267,3.33-7.762,7.597-7.808
		l0.095-0.001c0.028,0,0.056,0,0.085,0c4.228,0,7.679,3.405,7.724,7.644c0.045,4.268-3.377,7.763-7.644,7.809
		C259.33,470.817,259.302,470.817,259.274,470.817z"/>
</g>
<path style="fill:#FEDFC5;" d="M242.788,153.105c-4.229,0-7.727-3.405-7.772-7.645c-0.045-4.267,3.33-7.762,7.597-7.807l0.096-0.001
	c0.028,0,0.055,0,0.083,0c4.229,0,7.679,3.405,7.724,7.645c0.044,4.267-3.378,7.763-7.645,7.808
	C242.843,153.105,242.816,153.105,242.788,153.105z"/>
<g>
</g>
<g>
</g>
<g>
</g>
<g>
</g>
<g>
</g>
<g>
</g>
<g>
</g>
<g>
</g>
<g>
</g>
<g>
</g>
<g>
</g>
<g>
</g>
<g>
</g>
<g>
</g>
<g>
</g>
</svg>
