<svg width="40" height="40" viewBox="0 0 40 40" fill="none" xmlns="http://www.w3.org/2000/svg">
<path d="M36.11 20.4617C36.2214 20.0966 36.3165 19.7268 36.395 19.3533C36.4 19.325 36.4017 19.2983 36.4084 19.27C36.4417 19.1067 36.4567 18.9383 36.4834 18.7733C36.525 18.5117 36.575 18.2517 36.6 17.9883C36.7984 16.0239 36.5569 14.04 35.8929 12.1805C35.229 10.3211 34.1594 8.63286 32.7617 7.23832C31.5247 5.99867 30.055 5.01556 28.437 4.34543C26.819 3.6753 25.0846 3.33135 23.3334 3.33332V16.6667H10.8617L9.43171 13.3333H3.33337V16.6667H7.23504L10.2817 23.7767C9.2136 24.2168 8.30002 24.9638 7.65654 25.9233C7.01306 26.8827 6.66859 28.0114 6.66671 29.1667C6.66671 32.3833 9.28337 35 12.5 35C15.4317 35 17.84 32.8183 18.2484 30H21.7517C22.16 32.8183 24.5684 35 27.5 35C30.7167 35 33.3334 32.3833 33.3334 29.1667C33.3334 28.1167 33.0317 27.145 32.545 26.2917C32.615 26.2233 32.6934 26.1633 32.7634 26.0933C33.3634 25.4917 33.91 24.8283 34.3917 24.12C34.8717 23.4033 35.285 22.6433 35.6184 21.855C35.645 21.7933 35.6617 21.7283 35.6867 21.6667H35.6884L35.7134 21.5967C35.86 21.23 35.9934 20.8617 36.105 20.4833L36.11 20.4617ZM12.5 31.6667C11.1217 31.6667 10 30.545 10 29.1667C10 27.7883 11.1217 26.6667 12.5 26.6667C13.8784 26.6667 15 27.7883 15 29.1667C15 30.545 13.8784 31.6667 12.5 31.6667ZM27.5 31.6667C26.1217 31.6667 25 30.545 25 29.1667C25 27.7883 26.1217 26.6667 27.5 26.6667C28.8784 26.6667 30 27.7883 30 29.1667C30 30.545 28.8784 31.6667 27.5 31.6667Z" fill="black"/>
</svg>
