<svg width="40" height="40" viewBox="0 0 40 40" fill="none" xmlns="http://www.w3.org/2000/svg">
<path d="M8.3335 11.6666H31.3168C31.7825 11.6666 32.2431 11.7642 32.6687 11.9531C33.0944 12.142 33.4758 12.418 33.7882 12.7633C34.1007 13.1086 34.3374 13.5156 34.483 13.9579C34.6286 14.4003 34.6798 14.8682 34.6335 15.3316L33.6335 25.3316C33.5512 26.1541 33.1663 26.9167 32.5534 27.4714C31.9406 28.0261 31.1434 28.3333 30.3168 28.3333H14.4002C13.6293 28.3336 12.8821 28.0667 12.2859 27.5781C11.6897 27.0894 11.2813 26.4092 11.1302 25.6533L8.3335 11.6666Z" stroke="#444345" stroke-width="3.33333" stroke-linejoin="round"/>
<path d="M26.6668 35H30.0002M8.3335 11.6667L6.9835 6.26167C6.89321 5.90126 6.68508 5.58135 6.39218 5.35276C6.09927 5.12417 5.73838 5.00001 5.36683 5H3.3335L8.3335 11.6667ZM13.3335 35H16.6668H13.3335Z" stroke="#444345" stroke-width="3.33333" stroke-linecap="round" stroke-linejoin="round"/>
</svg>
