<svg width="40" height="40" viewBox="0 0 40 40" fill="none" xmlns="http://www.w3.org/2000/svg">
<path d="M23.3333 31.6667C29.6183 31.6667 32.7616 31.6667 34.7132 29.7133C36.6666 27.7617 36.6666 24.6183 36.6666 18.3333C36.6666 12.0483 36.6666 8.905 34.7132 6.95333C32.7616 5 29.6183 5 23.3333 5H16.6666C10.3816 5 7.23825 5 5.28659 6.95333C3.33325 8.905 3.33325 12.0483 3.33325 18.3333C3.33325 24.6183 3.33325 27.7617 5.28659 29.7133C6.37492 30.8033 7.83325 31.285 9.99992 31.4967" stroke="#444345" stroke-width="3.33333" stroke-linecap="round" stroke-linejoin="round"/>
<path d="M20 18.3333V18.35" stroke="#444345" stroke-width="3.33333" stroke-linecap="round"/>
<path d="M13.3333 18.3333V18.35" stroke="#444345" stroke-width="3.33333" stroke-linecap="round"/>
<path d="M26.6665 18.3333V18.35" stroke="#444345" stroke-width="3.33333" stroke-linecap="round"/>
<path d="M23.3332 31.6667C21.2732 31.6667 19.0032 32.5 16.9316 33.575C13.6016 35.3034 11.9366 36.1684 11.1166 35.6167C10.2966 35.0667 10.4516 33.3584 10.7632 29.9434L10.8332 29.1667" stroke="#444345" stroke-width="3.33333" stroke-linecap="round"/>
</svg>
