<svg id="Layer_1" height="512" viewBox="0 0 512 512" width="512" xmlns="http://www.w3.org/2000/svg" data-name="Layer 1"><path d="m254.95 96.87-126.2 42.49v.05c-33.64 30.58-49.36 75.83-49.36 124.29 0 93.37 71.35 171.05 177.7 169.06l157.96-135.29a204.068 204.068 0 0 0 3.05-33.77c0-87.06-56.99-167.07-163.15-166.83z" fill="#f09b4d"/><path d="m109.39 263.7a193.2 193.2 0 0 1 7-52.828 122.429 122.429 0 0 1 77.11-81.748l86.81-30.692a195.789 195.789 0 0 0 -25.36-1.562l-126.2 42.49v.05c-33.64 30.58-49.36 75.83-49.36 124.29 0 93.37 71.35 171.05 177.7 169.06l1.657-1.419c-90.49-10.976-149.357-82.833-149.357-167.641z" fill="#c17e48"/><path d="m493.84 294.2a12.448 12.448 0 0 0 -14.99-10.6l-266.58 57.95a12.43 12.43 0 0 0 -9.22 15.87 149.465 149.465 0 0 0 174.3 100.89c76.16-16.56 126-88.37 116.49-164.11z" fill="#edbf70"/><path d="m472.24 297.93c3.09 7.18 3.64 35.31-7.41 53.35-1.95 3.18-5.38 5.06-8.78 3.54l-83.41-37.36a27.528 27.528 0 0 0 -.24-10.53l-.04-.18 42.69-9.28 44.54-9.68 1.46.71c5.2 2.56 9.09 4.56 11.19 9.43z" fill="#e19541"/><path d="m448.6 366.45a6.608 6.608 0 0 1 2.65 9.73c-15.55 23.81-35.96 39.12-64.26 49.33a6.586 6.586 0 0 1 -8.71-4.74l-18.46-84.59v-.01a26.911 26.911 0 0 0 7.54-6.74z" fill="#efa760"/><path d="m372.64 317.46a27.374 27.374 0 0 1 -5.28 11.97 26.911 26.911 0 0 1 -7.54 6.74v.01a27.273 27.273 0 0 1 -8.38 3.33 26.584 26.584 0 0 1 -4.88.61 27.1 27.1 0 0 1 -10.81-1.81 27.5 27.5 0 0 1 -10.45-7.13 27.171 27.171 0 0 1 -6.5-12.6l-.04-.18 53.6-11.65.04.18a27.528 27.528 0 0 1 .24 10.53z" fill="#e5b376"/><path d="m364.88 424.44c.82 3.76-1.81 7.15-5.6 7.9-39.75 7.9-64.04-5.32-76.73-15.23-3.25-2.54-4.61-6.72-1.99-9.92l55.19-68.87v-.01a27.1 27.1 0 0 0 10.81 1.81l.02.45z" fill="#e19541"/><path d="m325.3 331.18-57.89 67.89a6.579 6.579 0 0 1 -9.45.57c-14.17-13-26.82-29.83-33.52-48.07-.95-2.58-2.3-10.33 5.53-13.87l88.79-19.3.04.18a27.171 27.171 0 0 0 6.5 12.6z" fill="#efa760"/><path d="m249.21 102.72c-1.24-.95-94.53-72.49-157.12-46.98-62.26 25.38-74.8 18-75.08 17.83.8 1.03 52.78 67.82 111.74 65.79 1.49-.05 2.98-.14 4.48-.28 61.25-5.76 115.99-36.35 115.99-36.35z" fill="#5fcda4"/><path d="m98.685 96.923c-8.227 0-14.648-1.563-20.208-4.918a6 6 0 0 1 6.2-10.275c3.609 2.179 8.06 3.193 14.008 3.193a6 6 0 0 1 0 12z" fill="#51a884"/><path d="m111.592 231.594a6.009 6.009 0 0 1 -5.919-7.028c.739-4.256 1.626-8.586 2.637-12.869a6 6 0 0 1 11.68 2.756c-.957 4.052-1.8 8.145-2.493 12.166a6 6 0 0 1 -5.905 4.975z" fill="#f4f8fc"/><path d="m122.709 329.541a5.987 5.987 0 0 1 -5.169-2.956c-.784-1.333-19.133-33.268-13.95-86.649a6 6 0 1 1 11.944 1.16c-4.782 49.244 12.187 79.125 12.36 79.422a6.006 6.006 0 0 1 -5.185 9.023z" fill="#f4f8fc"/><path d="m249.21 102.72c-.235-.18-3.775-2.893-9.776-7-28.275 2.445-94.8 2-121.615-8.148a6 6 0 1 0 -4.249 11.228c20.039 7.587 59.076 10.166 91.061 10.166 13.482 0 25.7-.459 34.724-1.194 6.307-3.054 9.865-5.041 9.865-5.041z" fill="#51a884"/><path d="m230.456 133.463a6 6 0 0 1 -1.895-11.694c4.054-1.964 15.692-19.876 16.887-26.011a6 6 0 0 1 11.779 2.3c-1.024 5.255-5.563 13.485-9.47 19.435-5.939 9.048-11.153 14.329-15.5 15.7a6.019 6.019 0 0 1 -1.801.27z" fill="#a5683d"/><path d="m254.42 67.48-23.96-.71 18.75 35.95.01.01 5.73-5.86z" fill="#6f624b"/></svg>