<svg width="50" height="40" viewBox="0 0 50 40" fill="none" xmlns="http://www.w3.org/2000/svg">
<path d="M41.25 35H8.75C8.0625 35 7.5 35.5625 7.5 36.25V38.75C7.5 39.4375 8.0625 40 8.75 40H41.25C41.9375 40 42.5 39.4375 42.5 38.75V36.25C42.5 35.5625 41.9375 35 41.25 35ZM46.25 10C44.1797 10 42.5 11.6797 42.5 13.75C42.5 14.3047 42.625 14.8203 42.8438 15.2969L37.1875 18.6875C35.9844 19.4062 34.4297 19 33.7344 17.7812L27.3672 6.64062C28.2031 5.95312 28.75 4.92188 28.75 3.75C28.75 1.67969 27.0703 0 25 0C22.9297 0 21.25 1.67969 21.25 3.75C21.25 4.92188 21.7969 5.95312 22.6328 6.64062L16.2656 17.7812C15.5703 19 14.0078 19.4062 12.8125 18.6875L7.16406 15.2969C7.375 14.8281 7.50781 14.3047 7.50781 13.75C7.50781 11.6797 5.82812 10 3.75781 10C1.6875 10 0 11.6797 0 13.75C0 15.8203 1.67969 17.5 3.75 17.5C3.95312 17.5 4.15625 17.4688 4.35156 17.4375L10 32.5H40L45.6484 17.4375C45.8438 17.4688 46.0469 17.5 46.25 17.5C48.3203 17.5 50 15.8203 50 13.75C50 11.6797 48.3203 10 46.25 10Z" fill="#FFFF05"/>
</svg>
