<svg width="32" height="32" viewBox="0 0 32 32" fill="none" xmlns="http://www.w3.org/2000/svg">
<g clip-path="url(#clip0_1304_814)">
<path d="M9.0768 0C9.37384 0 9.65872 0.118 9.86876 0.32804C10.0788 0.538081 10.1968 0.822958 10.1968 1.12V3.2144H22.224V1.1344C22.224 0.837358 22.342 0.552481 22.552 0.34244C22.7621 0.1324 23.047 0.0144 23.344 0.0144C23.641 0.0144 23.9259 0.1324 24.136 0.34244C24.346 0.552481 24.464 0.837358 24.464 1.1344V3.2144H28.8C29.6484 3.2144 30.4621 3.55132 31.0622 4.15109C31.6622 4.75086 31.9996 5.56438 32 6.4128V28.8016C31.9996 29.65 31.6622 30.4635 31.0622 31.0633C30.4621 31.6631 29.6484 32 28.8 32H3.2C2.35158 32 1.53789 31.6631 0.937824 31.0633C0.337753 30.4635 0.000424208 29.65 0 28.8016L0 6.4128C0.000424208 5.56438 0.337753 4.75086 0.937824 4.15109C1.53789 3.55132 2.35158 3.2144 3.2 3.2144H7.9568V1.1184C7.95722 0.821635 8.07541 0.537169 8.28541 0.327475C8.4954 0.11778 8.78003 -3.02821e-07 9.0768 0V0ZM2.24 12.3872V28.8016C2.24 28.9277 2.26483 29.0525 2.31308 29.169C2.36132 29.2854 2.43203 29.3913 2.52118 29.4804C2.61032 29.5696 2.71615 29.6403 2.83262 29.6885C2.9491 29.7368 3.07393 29.7616 3.2 29.7616H28.8C28.9261 29.7616 29.0509 29.7368 29.1674 29.6885C29.2838 29.6403 29.3897 29.5696 29.4788 29.4804C29.568 29.3913 29.6387 29.2854 29.6869 29.169C29.7352 29.0525 29.76 28.9277 29.76 28.8016V12.4096L2.24 12.3872ZM10.6672 23.3904V26.056H8V23.3904H10.6672ZM17.3328 23.3904V26.056H14.6672V23.3904H17.3328ZM24 23.3904V26.056H21.3328V23.3904H24ZM10.6672 17.0272V19.6928H8V17.0272H10.6672ZM17.3328 17.0272V19.6928H14.6672V17.0272H17.3328ZM24 17.0272V19.6928H21.3328V17.0272H24ZM7.9568 5.4528H3.2C3.07393 5.4528 2.9491 5.47763 2.83262 5.52588C2.71615 5.57412 2.61032 5.64483 2.52118 5.73398C2.43203 5.82312 2.36132 5.92895 2.31308 6.04542C2.26483 6.1619 2.24 6.28673 2.24 6.4128V10.1488L29.76 10.1712V6.4128C29.76 6.28673 29.7352 6.1619 29.6869 6.04542C29.6387 5.92895 29.568 5.82312 29.4788 5.73398C29.3897 5.64483 29.2838 5.57412 29.1674 5.52588C29.0509 5.47763 28.9261 5.4528 28.8 5.4528H24.464V6.9392C24.464 7.23624 24.346 7.52112 24.136 7.73116C23.9259 7.9412 23.641 8.0592 23.344 8.0592C23.047 8.0592 22.7621 7.9412 22.552 7.73116C22.342 7.52112 22.224 7.23624 22.224 6.9392V5.4528H10.1968V6.9248C10.1968 7.22184 10.0788 7.50672 9.86876 7.71676C9.65872 7.9268 9.37384 8.0448 9.0768 8.0448C8.77976 8.0448 8.49488 7.9268 8.28484 7.71676C8.0748 7.50672 7.9568 7.22184 7.9568 6.9248V5.4528Z" fill="#444345"/>
</g>
<defs>
<clipPath id="clip0_1304_814">
<rect width="32" height="32" fill="white"/>
</clipPath>
</defs>
</svg>
