<?xml version="1.0" encoding="iso-8859-1"?>
<!-- Generator: Adobe Illustrator 19.0.0, SVG Export Plug-In . SVG Version: 6.00 Build 0)  -->
<svg version="1.1" id="Capa_1" xmlns="http://www.w3.org/2000/svg" xmlns:xlink="http://www.w3.org/1999/xlink" x="0px" y="0px"
	 viewBox="0 0 511.998 511.998" style="enable-background:new 0 0 511.998 511.998;" xml:space="preserve">
<path style="fill:#F3F5E6;" d="M451.194,359.696L451.194,359.696c-13.559-8.406-18.637-19.408-13.798-29.891l0,0
	c10.21-22.118-23.783-43.193-69.664-43.193l0,0c-21.746,0-42.308-4.896-55.866-13.303l0,0c-28.607-17.737-83.126-17.737-111.732,0
	l0,0c-13.559,8.406-34.12,13.303-55.866,13.303l0,0c-45.881,0-79.874,21.076-69.664,43.193l0,0
	c4.838,10.483-0.24,21.485-13.798,29.891l0,0c-28.607,17.737-16.475,44.018,24.862,53.861l0,0
	c19.592,4.665,33.821,13.488,38.661,23.97l0,0c10.21,22.118,59.33,33.813,100.667,23.97l0,0c19.592-4.665,42.415-4.665,62.006,0l0,0
	c41.338,9.843,90.457-1.853,100.667-23.97l0,0c4.838-10.483,19.068-19.305,38.661-23.97l0,0
	C467.67,403.714,479.8,377.433,451.194,359.696z"/>
<path style="fill:#D7D9CC;" d="M161.832,434.92L161.832,434.92c-5.297-11.477-20.878-21.137-42.329-26.244l0,0
	c-45.259-10.777-58.542-39.552-27.221-58.971l0,0c14.844-9.204,20.405-21.249,15.106-32.727l0,0
	c-4.514-9.777-1.134-19.367,7.802-27.329c-29.978,6.605-48.476,23.069-40.589,40.156l0,0c4.838,10.483-0.24,21.485-13.798,29.891
	l0,0c-28.607,17.737-16.475,44.018,24.862,53.861l0,0c19.592,4.665,33.821,13.488,38.661,23.97l0,0
	c9.442,20.454,52.161,31.994,91.228,25.828C189.825,459.506,168.423,449.198,161.832,434.92z"/>
<g>
	<path style="fill:#F3F5E6;" d="M466.299,270.784c25.371-30.907,72.799-107.426-2.703-182.928s-152.021-28.074-182.928-2.703
		c-4.793,3.936-2.042,11.707,4.16,11.754l13.801,0.104c8.604,0.065,15.562,7.024,15.627,15.627l0.184,24.336
		c0.027,3.623,2.958,6.552,6.579,6.579l24.336,0.184c8.604,0.065,15.562,7.024,15.627,15.627l0.184,24.336
		c0.027,3.623,2.958,6.552,6.58,6.58l24.336,0.184c8.604,0.065,15.562,7.024,15.627,15.627l0.184,24.336
		c0.027,3.623,2.958,6.552,6.58,6.58l24.336,0.184c8.604,0.065,15.562,7.024,15.627,15.627l0.104,13.801
		C454.592,272.826,462.364,275.578,466.299,270.784z"/>
	<path style="fill:#F3F5E6;" d="M45.7,270.784c-25.371-30.907-72.799-107.426,2.703-182.928s152.021-28.074,182.928-2.703
		c4.794,3.936,2.042,11.707-4.16,11.754l-13.801,0.104c-8.604,0.065-15.562,7.024-15.627,15.627l-0.184,24.336
		c-0.027,3.623-2.958,6.552-6.579,6.579l-24.336,0.184c-8.604,0.065-15.562,7.024-15.627,15.627l-0.184,24.336
		c-0.027,3.623-2.958,6.552-6.58,6.58l-24.336,0.184c-8.604,0.065-15.562,7.024-15.627,15.627l-0.184,24.336
		c-0.027,3.623-2.958,6.552-6.58,6.58l-24.336,0.184c-8.604,0.065-15.562,7.024-15.627,15.627l-0.104,13.801
		C57.407,272.826,49.635,275.578,45.7,270.784z"/>
</g>
<g>
	<path style="fill:#D7D9CC;" d="M58.786,78.241c-3.461,2.958-6.922,6.154-10.383,9.615c-75.502,75.502-28.074,152.021-2.703,182.928
		c3.936,4.793,11.707,2.042,11.754-4.16l0.104-13.801c0.025-3.284,1.059-6.323,2.8-8.836
		C35.804,211.339,1.517,145.234,58.786,78.241z"/>
	<path style="fill:#D7D9CC;" d="M453.214,78.241c3.461,2.958,6.922,6.154,10.383,9.615c75.502,75.502,28.074,152.021,2.703,182.928
		c-3.936,4.793-11.707,2.042-11.754-4.16l-0.104-13.801c-0.025-3.284-1.059-6.323-2.8-8.836
		C476.196,211.339,510.482,145.234,453.214,78.241z"/>
</g>
<ellipse style="fill:#FEC300;" cx="256.003" cy="360.151" rx="97.91" ry="53.364"/>
<path style="fill:#FB8D4B;" d="M181.082,360.156c0-27.349,37.759-49.889,86.416-52.991c-3.773-0.24-7.608-0.368-11.499-0.368
	c-54.077,0-97.915,23.889-97.915,53.359c0,29.47,43.838,53.359,97.915,53.359c3.891,0,7.726-0.128,11.499-0.368
	C218.841,410.046,181.082,387.506,181.082,360.156z"/>
<path d="M374.923,39.481c-43.884,0-80.87,24.984-99.013,39.877c-4.653,3.82-6.363,9.955-4.357,15.629
	c2.008,5.676,7.196,9.374,13.218,9.42l13.801,0.104c4.48,0.034,8.151,3.706,8.185,8.185l0.184,24.336
	c0.058,7.674,6.348,13.965,14.023,14.023l24.336,0.184c4.48,0.034,8.151,3.706,8.185,8.185l0.184,24.336
	c0.058,7.673,6.348,13.964,14.022,14.023l24.336,0.184c4.48,0.034,8.151,3.706,8.185,8.185l0.184,24.336
	c0.058,7.674,6.348,13.965,14.023,14.023l24.336,0.184c4.48,0.034,8.151,3.706,8.185,8.185l0.104,13.801
	c0.06,7.872,6.292,14.039,14.189,14.039l0,0c4.201,0,8.159-1.887,10.86-5.177c14.198-17.294,32.327-44.904,38.07-78.225
	c7.171-41.599-6.712-80.211-41.267-114.764C440.319,53.972,408.7,39.481,374.923,39.481z M495.386,194.769
	c-4.987,28.934-20.567,53.405-33.359,69.378l-0.086-11.38c-0.096-12.626-10.445-22.975-23.071-23.071l-23.481-0.177l-0.177-23.481
	c-0.096-12.626-10.445-22.975-23.071-23.071l-23.481-0.177l-0.177-23.481c-0.096-12.626-10.445-22.975-23.071-23.071l-23.481-0.177
	l-0.177-23.481c-0.096-12.626-10.445-22.975-23.071-23.071l-11.378-0.086c17.173-13.732,49.831-34.948,87.616-34.948
	c29.655,0,57.704,13.014,83.371,38.68C489.201,124.066,501.681,158.253,495.386,194.769z"/>
<path d="M39.904,275.542c2.758,3.36,6.722,5.185,10.85,5.184c1.589,0,3.203-0.271,4.779-0.828c5.676-2.008,9.374-7.196,9.42-13.218
	l0.104-13.8c0.034-4.48,3.707-8.152,8.186-8.186l24.336-0.184c7.673-0.058,13.964-6.348,14.022-14.023l0.185-24.337
	c0.033-4.48,3.706-8.151,8.185-8.185l24.337-0.184c7.673-0.058,13.964-6.348,14.022-14.022l0.184-24.336
	c0.034-4.48,3.707-8.152,8.186-8.186l24.336-0.184c7.674-0.058,13.965-6.348,14.023-14.023l0.184-24.335
	c0.034-4.48,3.707-8.152,8.186-8.186l13.801-0.104c6.021-0.046,11.21-3.744,13.217-9.42c2.007-5.674,0.297-11.81-4.356-15.629
	c-18.752-15.394-56.943-41.042-102.139-39.829c-4.141,0.11-7.406,3.557-7.295,7.697c0.111,4.14,3.549,7.416,7.697,7.295
	c38.878-1.03,72.622,20.738,90.341,34.906l-11.379,0.085c-12.625,0.096-22.975,10.446-23.071,23.071l-0.177,23.481l-23.481,0.177
	c-12.625,0.096-22.975,10.445-23.071,23.071l-0.177,23.481l-23.481,0.177c-12.626,0.096-22.976,10.445-23.07,23.071l-0.178,23.481
	l-23.481,0.177c-12.625,0.096-22.975,10.446-23.071,23.071l-0.086,11.38c-12.792-15.972-28.372-40.444-33.359-69.378
	c-6.297-36.516,6.182-70.703,37.089-101.609C70.323,76.541,88.065,65.14,106.437,59.27c3.945-1.26,6.121-5.48,4.86-9.426
	c-1.26-3.945-5.478-6.122-9.426-4.86C81.198,51.587,61.425,64.228,43.1,82.553C8.546,117.107-5.337,155.718,1.834,197.317
	C7.578,230.638,25.706,258.248,39.904,275.542z"/>
<path d="M313.379,308.888c-3.889-1.433-8.198,0.557-9.63,4.443c-1.433,3.887,0.557,8.198,4.443,9.63
	c23.934,8.821,38.224,22.727,38.224,37.195c0,24.858-41.406,45.86-90.415,45.86c-49.011,0-90.416-21.002-90.416-45.86
	s41.406-45.86,90.416-45.86c8.496,0,16.921,0.621,25.044,1.846c4.091,0.617,7.916-2.202,8.533-6.297
	c0.618-4.096-2.202-7.916-6.297-8.533c-8.86-1.336-18.039-2.014-27.28-2.014c-59.111,0-105.415,26.732-105.415,60.859
	S196.889,421.014,256,421.014s105.414-26.732,105.414-60.859C361.414,339.139,343.457,319.973,313.379,308.888z"/>
<path d="M193.765,352.559v9.907c0,4.142,3.358,7.499,7.499,7.499c4.142,0,7.499-3.358,7.499-7.499v-9.907
	c0-4.142-3.358-7.499-7.499-7.499C197.122,345.06,193.765,348.417,193.765,352.559z"/>
<path d="M310.735,369.965c4.142,0,7.499-3.358,7.499-7.499v-9.907c0-4.142-3.358-7.499-7.499-7.499s-7.499,3.358-7.499,7.499v9.907
	C303.236,366.607,306.594,369.965,310.735,369.965z"/>
<path d="M263.864,356.841c-1.896,2.169-4.762,3.414-7.864,3.414c-3.102,0-5.967-1.244-7.864-3.414
	c-2.727-3.118-7.463-3.437-10.582-0.71c-3.118,2.727-3.436,7.463-0.71,10.582c4.745,5.427,11.728,8.54,19.156,8.54
	c7.429,0,14.411-3.113,19.156-8.541c2.727-3.119,2.408-7.855-0.71-10.582C271.327,353.405,266.59,353.722,263.864,356.841z"/>
<path d="M442.243,307.29c-10.952-17.117-40.199-28.178-74.511-28.178c-20.209,0-39.617-4.553-51.914-12.177
	c-14.789-9.169-36.592-14.428-59.819-14.428s-45.029,5.259-59.818,14.428c-12.298,7.624-31.706,12.177-51.916,12.177
	c-34.311,0-63.559,11.061-74.511,28.179c-5.171,8.082-5.868,17.194-1.962,25.656c4.244,9.194-5.033,16.712-10.941,20.375
	c-19.033,11.801-19.966,25.349-18.828,32.374c2.557,15.777,19.718,28.92,45.906,35.156c16.937,4.034,29.808,11.627,33.588,19.819
	c4.556,9.869,14.883,18.124,29.866,23.875c13.395,5.14,29.966,7.971,46.66,7.971c11.314,0,22.312-1.253,32.689-3.724
	c9.052-2.156,19.172-3.295,29.266-3.295c10.093,0,20.214,1.139,29.267,3.295c10.376,2.471,21.374,3.724,32.688,3.724
	c0.001,0,0,0,0.001,0c16.694,0,33.266-2.831,46.66-7.971c14.981-5.749,25.308-14.006,29.865-23.875
	c3.781-8.191,16.651-15.785,33.589-19.818c26.187-6.235,43.348-19.378,45.905-35.156c1.138-7.025,0.206-20.573-18.828-32.374
	c-5.907-3.664-15.185-11.181-10.941-20.374C448.112,324.486,447.415,315.374,442.243,307.29z M447.243,366.069
	c4.994,3.097,13.186,9.453,11.926,17.228c-1.145,7.068-10.887,17.324-34.573,22.965c-21.957,5.228-37.896,15.478-43.732,28.122
	c-6.088,13.189-33.133,23.135-62.907,23.134c-10.145,0-19.975-1.116-29.215-3.316c-10.173-2.423-21.495-3.703-32.741-3.703
	c-11.246,0-22.567,1.28-32.741,3.703c-9.24,2.2-19.069,3.316-29.214,3.316c-29.775,0-56.82-9.945-62.908-23.134
	c-5.836-12.645-21.776-22.895-43.731-28.123c-23.686-5.64-33.429-15.895-34.574-22.965c-1.26-7.775,6.931-14.132,11.927-17.228
	c8.017-4.97,13.621-10.824,16.654-17.397c3.323-7.199,3.323-14.81,0-22.01c-1.786-3.868-1.475-7.454,0.978-11.288
	c6.552-10.241,28.71-21.263,61.877-21.263c23.227,0,45.029-5.258,59.818-14.428c12.481-7.738,31.403-12.177,51.914-12.177
	c20.512,0,39.434,4.439,51.915,12.177c14.789,9.17,36.592,14.428,59.818,14.428c33.167,0,55.325,11.022,61.876,21.263
	c2.453,3.834,2.764,7.42,0.978,11.289c-3.323,7.199-3.323,14.81,0,22.01C433.622,355.245,439.226,361.099,447.243,366.069z"/>
<g>
</g>
<g>
</g>
<g>
</g>
<g>
</g>
<g>
</g>
<g>
</g>
<g>
</g>
<g>
</g>
<g>
</g>
<g>
</g>
<g>
</g>
<g>
</g>
<g>
</g>
<g>
</g>
<g>
</g>
</svg>
