<svg id="Capa_1" enable-background="new 0 0 512 512" height="512" viewBox="0 0 512 512" width="512" xmlns="http://www.w3.org/2000/svg"><g><g><path clip-rule="evenodd" d="m230.989 502c86.744 0 173.489-56.713 173.489-170.111 0-26.91-4.168-53.48-11.258-79.228-17.553-63.689-52.829-122.415-86.574-169.374-12.108-16.844-24.018-32.185-34.851-45.682-29.491-36.807-52.12-36.807-81.612 0-53.113 66.269-132.683 176.945-132.683 294.284 0 113.398 86.744 170.111 173.489 170.111z" fill="#ffda8f" fill-rule="evenodd"/></g><g><path clip-rule="evenodd" d="m393.22 252.661c33.405-9.017 61.28-36.24 61.28-81.724 0-58.67-39.785-113.993-66.327-147.114-14.746-18.403-26.06-18.403-40.806 0-12.505 15.568-27.903 36.041-40.721 59.464 33.745 46.959 69.021 105.685 86.574 169.374z" fill="#fff3da" fill-rule="evenodd"/></g><g><path d="m199 350.91c3.994 0 7.768-2.411 9.313-6.354l5.234-13.356h35.339l5.234 13.356c1.545 3.944 5.318 6.354 9.313 6.354 1.213 0 2.448-.223 3.646-.692 5.142-2.015 7.677-7.817 5.662-12.959l-7.685-19.61c-.056-.148-.11-.297-.173-.441l-24.357-62.155c-1.487-3.792-5.267-6.359-9.338-6.345-4.051.014-7.803 2.568-9.283 6.345l-32.214 82.206c-2.015 5.142.52 10.944 5.662 12.959 1.199.469 2.433.692 3.647.692zm32.216-64.801 9.832 25.09h-19.664z"/><path d="m162.28 268.701c5.523 0 10-4.477 10-10s-4.477-10-10-10h-37.035c-5.523 0-10 4.477-10 10v82.206c0 5.523 4.477 10 10 10s10-4.477 10-10v-33.669h27.035c5.523 0 10-4.477 10-10s-4.477-10-10-10h-27.035v-18.536h27.035z"/><path d="m318.868 350.907c5.523 0 10-4.477 10-10v-72.206h18.953c5.523 0 10-4.477 10-10s-4.477-10-10-10h-57.735c-5.523 0-10 4.477-10 10s4.477 10 10 10h18.782v72.206c0 5.523 4.477 10 10 10z"/><path d="m115.207 155.104c5.523 0 10-4.477 10-10v-.028c0-5.523-4.477-9.986-10-9.986s-10 4.491-10 10.014 4.477 10 10 10z"/><path d="m395.977 17.571c-6.037-7.534-15.528-17.55-28.207-17.55s-22.17 10.016-28.199 17.54c-9.204 11.458-21.96 27.97-33.893 47.474-9.441-12.698-18.34-24.027-26.078-33.683-17.14-21.39-32.586-31.352-48.611-31.352s-31.471 9.962-48.609 31.351c-20.423 25.482-36.852 47.719-51.701 69.979-3.064 4.595-1.824 10.804 2.77 13.868 4.594 3.065 10.803 1.825 13.868-2.77 14.518-21.765 30.618-43.553 50.67-68.571 12.863-16.053 23.658-23.857 33.002-23.857s20.139 7.804 33.003 23.859c56.016 69.892 130.486 175.79 130.486 288.03 0 110.007-84.748 160.111-163.489 160.111s-163.489-50.104-163.489-160.111c0-44.448 12.089-92.544 35.932-142.951 2.362-4.993.229-10.954-4.764-13.315-4.992-2.362-10.954-.229-13.315 4.764-25.118 53.101-37.853 104.073-37.853 151.502 0 55.525 19.933 102.248 57.645 135.118 33.287 29.014 77.98 44.993 125.844 44.993s92.557-15.979 125.845-44.993c37.711-32.87 57.645-79.593 57.645-135.118 0-23.416-3.104-47.668-9.266-72.616 15.547-5.838 28.874-15.206 38.909-27.464 13.332-16.286 20.378-37.335 20.378-60.871 0-60.826-39.107-116.661-68.523-153.367zm3.879 222.353c-7.851-25.688-18.839-52.058-32.945-78.971-15.031-28.677-32.116-55.213-48.44-78.288 12.458-21.644 26.735-40.184 36.699-52.589 7.01-8.749 10.903-10.056 12.599-10.056s5.589 1.307 12.6 10.056c27.53 34.354 64.13 86.332 64.13 140.86.001 32.592-16.499 57.748-44.643 68.988z"/></g></g></svg>