<?xml version="1.0" encoding="iso-8859-1"?>
<!-- Generator: Adobe Illustrator 19.0.0, SVG Export Plug-In . SVG Version: 6.00 Build 0)  -->
<svg xmlns="http://www.w3.org/2000/svg" xmlns:xlink="http://www.w3.org/1999/xlink" version="1.1" id="Layer_1" x="0px" y="0px" viewBox="0 0 490.004 490.004" style="enable-background:new 0 0 490.004 490.004;" xml:space="preserve" width="512" height="512">
<g>
	<path style="fill:#5B5B68;" d="M450.422,316.01c0,103.04-51.5,154.14-124.95,173.34c-12.52,3.27-24.77-6.13-24.77-19.07v-90.61   c0-15.38-6.24-29.3-16.32-39.38c-10.08-10.08-24-16.32-39.38-16.32c-30.77,0-55.7,24.94-55.7,55.7v90.61   c0,12.94-12.25,22.34-24.77,19.07c-73.46-19.2-124.95-70.3-124.95-173.34C39.582,178.31,131.552,0,245.002,0   S450.422,178.31,450.422,316.01z"/>
	<path style="fill:#FF884D;" d="M419.882,316.02c0,1.15-0.01,2.29-0.02,3.42c-0.56,44.32-12.08,78.85-34.26,102.69   c-0.57,0.61-1.14,1.21-1.73,1.81c-20.1,20.61-47.94,31.81-76.72,31.81h-6.46v-76.08c0-4-0.42-7.9-1.22-11.66   c-2.28-10.7-7.63-20.27-15.09-27.72c-10.07-10.09-24-16.32-39.38-16.32c-26.77,0-49.12,18.87-54.48,44.04   c-0.81,3.76-1.23,7.66-1.23,11.66v76.08h-6.45c-28.78,0-56.63-11.2-76.72-31.81c-0.58-0.6-1.16-1.2-1.73-1.81   c-22.19-23.84-33.71-58.38-34.27-102.71v-0.01c-0.01-1.12-0.02-2.25-0.02-3.39c0-5.65,0.17-11.39,0.52-17.21v-0.01   c3.46-58.51,23.97-124.67,55.28-176.69c35.02-58.2,78.42-91.58,119.1-91.58c40.66,0,84.08,33.38,119.08,91.58   c31.31,52.03,51.83,118.21,55.28,176.72C419.712,304.64,419.882,310.38,419.882,316.02z"/>
	<path style="fill:#E86328;" d="M425.112,314.31c-1.73,1.74-3.48,3.45-5.25,5.13c-32.96,31.33-73.47,53.17-117.63,63.34l-1.54,0.35   v-3.46c0-4-0.42-7.9-1.22-11.66c43.53-10.14,83.29-32.36,115-64.27l4.89-4.91l0.4-0.41L425.112,314.31z"/>
	<path style="fill:#E86328;" d="M190.522,368.01c-0.81,3.76-1.23,7.66-1.23,11.66v3.46l-1.53-0.35   c-44.16-10.17-84.69-32.02-117.64-63.36v-0.01c-1.77-1.66-3.52-3.37-5.24-5.11l5.35-15.89l0.39,0.39v0.01l4.9,4.92   C107.232,335.65,146.982,357.87,190.522,368.01z"/>
	<path style="fill:#E86328;" d="M288.59,270.354c-3.565,0-6.727-2.552-7.375-6.184c-0.728-4.078,1.989-7.973,6.066-8.701   c40.558-7.236,78.797-25.069,110.585-51.571c3.182-2.652,7.911-2.224,10.563,0.958c2.652,3.182,2.224,7.911-0.958,10.563   c-33.787,28.168-74.438,47.123-117.556,54.816C289.471,270.315,289.027,270.354,288.59,270.354z"/>
	<path style="fill:#E86328;" d="M201.404,270.344c-0.438,0-0.88-0.039-1.326-0.118c-43.119-7.693-83.769-26.648-117.555-54.816   c-3.182-2.653-3.61-7.382-0.958-10.563c2.653-3.181,7.382-3.61,10.563-0.958c31.788,26.502,70.027,44.335,110.584,51.571   c4.078,0.728,6.793,4.623,6.066,8.701C208.13,267.792,204.969,270.344,201.404,270.344z"/>
	<path style="fill:#E86328;" d="M245.002,163.691c-43.58,0-86.566-11.229-124.312-32.471c-3.61-2.032-4.889-6.605-2.858-10.215   c2.032-3.61,6.606-4.889,10.214-2.858c35.505,19.982,75.947,30.543,116.956,30.543c40.995,0,81.435-10.558,116.947-30.534   c3.609-2.031,8.184-0.75,10.214,2.86c2.03,3.61,0.75,8.183-2.86,10.214C331.55,152.467,288.567,163.691,245.002,163.691z"/>
	<path style="fill:#E86328;" d="M244.999,239.254c-4.142,0-7.5-3.358-7.5-7.5V30.53c0-4.142,3.358-7.5,7.5-7.5s7.5,3.358,7.5,7.5   v201.224C252.498,235.896,249.141,239.254,244.999,239.254z"/>
	<circle style="fill:#E4E4EF;" cx="244.999" cy="274.591" r="49.38"/>
	<path style="fill:#E4E4EF;" d="M427.392,316.02c0,47.92-12.22,85.35-36.3,111.22c-0.62,0.66-1.23,1.31-1.87,1.95   c-21.1,21.64-51.02,34.06-82.07,34.06h-6.45v-15h6.45c27.03,0,53.04-10.77,71.35-29.55c0.57-0.57,1.09-1.13,1.62-1.69   c21.41-23,32.27-56.98,32.27-100.99c0-61.12-20.97-133.94-54.73-190.04c-33.62-55.9-74.68-87.95-112.66-87.95   s-79.04,32.06-112.67,87.95c-33.76,56.1-54.73,128.92-54.73,190.04c0,44,10.86,77.98,32.28,101c0.53,0.57,1.08,1.14,1.63,1.71   c18.29,18.75,44.3,29.52,71.33,29.52h6.46v15h-6.46c-31.05,0-60.97-12.42-82.09-34.07c-0.64-0.66-1.24-1.29-1.84-1.93   c-24.09-25.9-36.31-63.32-36.31-111.23c0-63.69,21.8-139.47,56.88-197.78c36.4-60.51,82.15-95.21,125.52-95.21   s89.12,34.7,125.51,95.21C405.592,176.55,427.392,252.33,427.392,316.02z"/>
</g>















</svg>
