<svg width="80" height="80" viewBox="0 0 80 80" fill="none" xmlns="http://www.w3.org/2000/svg">
<path d="M40 66.475C58.8122 66.475 74.0625 52.3999 74.0625 35.0375C74.0625 17.675 58.8122 3.59998 40 3.59998C21.1878 3.59998 5.9375 17.675 5.9375 35.0375C5.9375 52.3999 21.1878 66.475 40 66.475Z" fill="#312D2D"/>
<path d="M67.8937 43.6125C67.8937 43.6125 73.0812 44.5126 73.0812 50.1001C73.0812 55.0313 69.2937 56.9751 65.5125 56.9751V43.6125H67.8937Z" fill="#DBA689"/>
<path d="M12.1062 43.6125C12.1062 43.6125 6.9187 44.5126 6.9187 50.1001C6.9187 55.0313 10.7062 56.9751 14.4875 56.9751V43.6125H12.1062Z" fill="#DBA689"/>
<path d="M62.3624 58.775C65.1437 58.8812 67.6499 60.0375 69.0687 62.55C69.7187 63.7062 70.1687 65.1125 70.4062 66.4187C70.6124 67.5562 70.4187 69.85 71.4124 70.675C71.8624 71.05 72.7812 71.1187 73.0374 71.6812C73.7437 73.2375 70.2687 74.9062 69.3749 75.1875C63.4624 77.0688 55.2312 74.9187 53.6937 68.0312C52.5187 62.8062 57.2312 58.575 62.3624 58.775Z" fill="#312D2D"/>
<path d="M17.8687 58.7938C15.0812 58.85 12.5624 59.9625 11.0999 62.45C10.4312 63.5938 9.95619 64.9875 9.69369 66.2938C9.46869 67.425 9.61869 69.7188 8.61244 70.5313C8.15619 70.9 7.23744 70.95 6.96869 71.5125C6.23744 73.0563 9.68119 74.7875 10.5687 75.0875C16.4499 77.0688 24.7187 75.0625 26.3749 68.2063C27.6437 62.9938 22.9999 58.6875 17.8687 58.7938Z" fill="#312D2D"/>
<path d="M59.7438 26.8438C55.0188 20.9563 46.8875 18.4375 40 18.4375C33.1188 18.4375 24.9813 20.9625 20.2625 26.8438C15.6438 32.5938 13.225 40.025 13.2625 49.9937C13.3 58.0312 15.3625 64.2125 21.1938 69.075C26.5938 73.5812 32.8375 76.0125 39.6 76.0125C46.25 76.0125 53.5875 73.6875 58.7875 69.1125C64.4938 64.0938 66.7063 58.0312 66.7438 49.9937C66.7813 40.0187 64.35 32.5938 59.7438 26.8438Z" fill="#FADCBC"/>
<path d="M43.9062 56.025C42.5312 56.4125 41.1062 56.6062 40 56.6062C38.8937 56.6062 37.4687 56.4187 36.0937 56.025C35.5062 55.8562 35.275 56.4187 35.4875 56.7875C35.925 57.5562 37.6812 59.1062 40 59.1062C42.3187 59.1062 44.075 57.5562 44.5125 56.7875C44.725 56.4187 44.4937 55.8625 43.9062 56.025Z" fill="#DBA689"/>
<path d="M48.0812 62.375H40H31.9187C30.9937 62.375 30.5937 63 31.2062 63.9312C32.0625 65.2375 35.25 67.75 40 67.75C44.75 67.75 47.9375 65.2375 48.7937 63.9312C49.4062 63 49.0125 62.375 48.0812 62.375Z" fill="#513F35"/>
<path d="M69.8688 22.3813L47.6312 7.5625H32.2437L10.0062 22.3813L7.09375 32.8625L10.1562 42.275L12.325 46.4437C24.0562 43.775 35.8375 35.5688 39.55 30.9625C39.7562 30.7125 40.1313 30.7125 40.3375 30.9625C44.05 35.5688 55.5563 43.6625 67.5625 46.4437L69.725 42.275L72.7875 32.8625L69.8688 22.3813Z" fill="#312D2D"/>
<path d="M29.3 50.225C29.3 52.6063 27.7063 54.5375 25.7313 54.5375C23.7563 54.5375 22.15 52.6063 22.15 50.225C22.15 47.8375 23.7563 45.9062 25.7313 45.9062C27.7063 45.9062 29.3 47.8375 29.3 50.225Z" fill="#444444"/>
<path d="M57.8501 50.225C57.8501 52.6063 56.2563 54.5375 54.2813 54.5375C52.3063 54.5375 50.7001 52.6063 50.7001 50.225C50.7001 47.8375 52.3063 45.9062 54.2813 45.9062C56.2501 45.9062 57.8501 47.8375 57.8501 50.225Z" fill="#444444"/>
</svg>
