<svg width="100" height="100" viewBox="0 0 100 100" fill="none" xmlns="http://www.w3.org/2000/svg">
<circle cx="50" cy="50" r="50" fill="#F2B3E1"/>
<path d="M50 76.475C68.8122 76.475 84.0625 62.3999 84.0625 45.0375C84.0625 27.675 68.8122 13.6 50 13.6C31.1878 13.6 15.9375 27.675 15.9375 45.0375C15.9375 62.3999 31.1878 76.475 50 76.475Z" fill="#312D2D"/>
<path d="M77.8938 53.6125C77.8938 53.6125 83.0813 54.5125 83.0813 60.1C83.0813 65.0312 79.2938 66.975 75.5125 66.975V53.6125H77.8938Z" fill="#DBA689"/>
<path d="M22.1063 53.6125C22.1063 53.6125 16.9188 54.5125 16.9188 60.1C16.9188 65.0312 20.7063 66.975 24.4875 66.975V53.6125H22.1063Z" fill="#DBA689"/>
<path d="M72.3625 68.775C75.1437 68.8812 77.65 70.0375 79.0688 72.55C79.7188 73.7062 80.1688 75.1125 80.4062 76.4187C80.6125 77.5562 80.4188 79.85 81.4125 80.675C81.8625 81.05 82.7812 81.1187 83.0375 81.6812C83.7437 83.2375 80.2687 84.9062 79.375 85.1875C73.4625 87.0688 65.2313 84.9187 63.6938 78.0312C62.5188 72.8062 67.2312 68.575 72.3625 68.775Z" fill="#312D2D"/>
<path d="M27.8688 68.7937C25.0813 68.85 22.5625 69.9625 21.1 72.45C20.4313 73.5937 19.9563 74.9875 19.6938 76.2937C19.4688 77.425 19.6188 79.7187 18.6125 80.5312C18.1563 80.9 17.2375 80.95 16.9688 81.5125C16.2375 83.0562 19.6813 84.7875 20.5688 85.0875C26.45 87.0687 34.7188 85.0625 36.375 78.2062C37.6438 72.9937 33 68.6875 27.8688 68.7937Z" fill="#312D2D"/>
<path d="M69.7438 36.8438C65.0188 30.9563 56.8875 28.4375 50 28.4375C43.1188 28.4375 34.9813 30.9625 30.2625 36.8438C25.6438 42.5938 23.225 50.025 23.2625 59.9937C23.3 68.0312 25.3625 74.2125 31.1938 79.075C36.5938 83.5812 42.8375 86.0125 49.6 86.0125C56.25 86.0125 63.5875 83.6875 68.7875 79.1125C74.4938 74.0938 76.7063 68.0312 76.7438 59.9937C76.7813 50.0187 74.35 42.5938 69.7438 36.8438Z" fill="#FADCBC"/>
<path d="M53.9062 66.025C52.5312 66.4125 51.1062 66.6063 50 66.6063C48.8937 66.6063 47.4687 66.4188 46.0937 66.025C45.5062 65.8563 45.275 66.4188 45.4875 66.7875C45.925 67.5563 47.6812 69.1063 50 69.1063C52.3187 69.1063 54.075 67.5563 54.5125 66.7875C54.725 66.4188 54.4937 65.8625 53.9062 66.025Z" fill="#DBA689"/>
<path d="M58.0813 72.375H50H41.9188C40.9938 72.375 40.5938 73 41.2063 73.9312C42.0625 75.2375 45.25 77.75 50 77.75C54.75 77.75 57.9375 75.2375 58.7938 73.9312C59.4063 73 59.0125 72.375 58.0813 72.375Z" fill="#513F35"/>
<path d="M79.8688 32.3813L57.6312 17.5625H42.2437L20.0062 32.3813L17.0938 42.8625L20.1562 52.275L22.325 56.4437C34.0562 53.775 45.8375 45.5688 49.55 40.9625C49.7562 40.7125 50.1313 40.7125 50.3375 40.9625C54.05 45.5688 65.5563 53.6625 77.5625 56.4437L79.725 52.275L82.7875 42.8625L79.8688 32.3813Z" fill="#312D2D"/>
<path d="M39.3 60.225C39.3 62.6063 37.7063 64.5375 35.7313 64.5375C33.7563 64.5375 32.15 62.6063 32.15 60.225C32.15 57.8375 33.7563 55.9062 35.7313 55.9062C37.7063 55.9062 39.3 57.8375 39.3 60.225Z" fill="#444444"/>
<path d="M67.85 60.225C67.85 62.6063 66.2563 64.5375 64.2813 64.5375C62.3063 64.5375 60.7 62.6063 60.7 60.225C60.7 57.8375 62.3063 55.9062 64.2813 55.9062C66.25 55.9062 67.85 57.8375 67.85 60.225Z" fill="#444444"/>
</svg>
