<svg width="40" height="40" viewBox="0 0 40 40" fill="none" xmlns="http://www.w3.org/2000/svg">
<path d="M36.3425 16.7358H35V16.6666H20V23.3333H29.4191C28.045 27.2141 24.3525 30 20 30C14.4775 30 9.99998 25.5225 9.99998 20C9.99998 14.4775 14.4775 9.99998 20 9.99998C22.5491 9.99998 24.8683 10.9616 26.6341 12.5325L31.3483 7.81831C28.3716 5.04415 24.39 3.33331 20 3.33331C10.7958 3.33331 3.33331 10.7958 3.33331 20C3.33331 29.2041 10.7958 36.6666 20 36.6666C29.2041 36.6666 36.6666 29.2041 36.6666 20C36.6666 18.8825 36.5516 17.7916 36.3425 16.7358Z" fill="#FFC107"/>
<path d="M5.255 12.2425L10.7308 16.2583C12.2125 12.59 15.8008 9.99998 20 9.99998C22.5492 9.99998 24.8683 10.9616 26.6342 12.5325L31.3483 7.81831C28.3717 5.04415 24.39 3.33331 20 3.33331C13.5983 3.33331 8.04667 6.94748 5.255 12.2425Z" fill="#FF3D00"/>
<path d="M20 36.6667C24.305 36.6667 28.2166 35.0192 31.1741 32.34L26.0158 27.975C24.2863 29.2903 22.1729 30.0017 20 30C15.665 30 11.9841 27.2359 10.5975 23.3784L5.16248 27.5659C7.92081 32.9634 13.5225 36.6667 20 36.6667Z" fill="#4CAF50"/>
<path d="M36.3425 16.7359H35V16.6667H20V23.3334H29.4192C28.7618 25.1804 27.5778 26.7943 26.0133 27.9759L26.0158 27.9742L31.1742 32.3392C30.8092 32.6709 36.6667 28.3334 36.6667 20C36.6667 18.8825 36.5517 17.7917 36.3425 16.7359Z" fill="#1976D2"/>
</svg>
