<svg width="40" height="40" viewBox="0 0 40 40" fill="none" xmlns="http://www.w3.org/2000/svg">
<g clip-path="url(#clip0)">
<path fill-rule="evenodd" clip-rule="evenodd" d="M38.8738 24.1276C37.8001 24.7038 36.4151 24.3587 35.7961 23.3594L33.7396 20.0456C33.7396 25.4167 33.8131 32.2135 33.8131 37.5911C33.8131 38.916 32.6484 39.9967 31.2285 39.9967C29.805 39.9967 28.6439 38.9128 28.6439 37.5911V26.9954H27.1924V37.5944C27.1924 38.9193 26.0278 40 24.6079 40C23.1844 40 22.0233 38.916 22.0233 37.5944C22.0233 32.2428 22.0897 25.472 22.0897 20.1302L20.0857 23.3626C19.4666 24.362 18.0817 24.707 17.008 24.1309C15.9342 23.5547 15.5635 22.2656 16.1826 21.2663L21.4252 12.8158C23.2963 9.80143 32.3616 9.43034 34.3796 12.6823L39.7027 21.2663C40.3183 22.2624 39.9475 23.5514 38.8738 24.1276ZM9.00936 29.5443C8.58617 29.5443 8.24692 29.2708 8.24692 28.9323C8.24692 28.5938 8.58966 28.3203 9.00936 28.3203H11.5205V24.8828H6.28486C5.86168 24.8828 5.52243 24.6094 5.52243 24.2708C5.52243 23.9323 5.86517 23.6589 6.28486 23.6589H11.5205V19.8307H9.00936C8.58617 19.8307 8.24692 19.5573 8.24692 19.2188C8.24692 18.8802 8.58966 18.6068 9.00936 18.6068H11.5205V15.0977H6.28486C5.86168 15.0977 5.52243 14.8242 5.52243 14.4857C5.52243 14.1471 5.86517 13.8737 6.28486 13.8737H11.5205V10.179H9.00936C8.58617 10.179 8.24692 9.9056 8.24692 9.56706C8.24692 9.22852 8.58966 8.95508 9.00936 8.95508H11.5205V5.30924H6.28486C5.86168 5.30924 5.52243 5.03581 5.52243 4.69727C5.52243 4.35872 5.86517 4.08529 6.28486 4.08529H11.5205V1.4388H1.33252V38.0892H11.5205V34.4727H6.28486C5.86168 34.4727 5.52243 34.1992 5.52243 33.8607C5.52243 33.5221 5.86517 33.2487 6.28486 33.2487H11.5205V29.5443H9.00936ZM0.730961 0.198568H12.1221C12.3214 0.198568 12.5033 0.273438 12.6362 0.400391C12.7691 0.524089 12.853 0.693359 12.853 0.878906V38.6491C12.853 38.8346 12.7726 39.0039 12.6362 39.1276C12.5033 39.2546 12.3179 39.3294 12.1221 39.3294H0.730961C0.531608 39.3294 0.349742 39.2546 0.21684 39.1276C0.0804407 39.0039 0 38.8346 0 38.6491V0.878906C0 0.693359 0.0804407 0.524089 0.21684 0.400391C0.349742 0.273438 0.531608 0.198568 0.730961 0.198568ZM27.9374 0C30.7878 0 33.0961 2.14844 33.0961 4.80143C33.0961 7.45443 30.7878 9.60287 27.9374 9.60287C25.087 9.60287 22.7787 7.45443 22.7787 4.80143C22.7787 2.14844 25.0905 0 27.9374 0Z" fill="#85B4F2"/>
</g>
<defs>
<clipPath id="clip0">
<rect width="40" height="40" fill="white"/>
</clipPath>
</defs>
</svg>
