<svg width="40" height="40" viewBox="0 0 40 40" fill="none" xmlns="http://www.w3.org/2000/svg">
<path d="M21.7175 3.15501C21.2533 2.71616 20.6388 2.47165 20 2.47165C19.3612 2.47165 18.7467 2.71616 18.2825 3.15501L6.1725 14.6C5.80171 14.9509 5.50646 15.3738 5.30484 15.8428C5.10323 16.3118 4.9995 16.817 5 17.3275V31.2525C5.00066 32.2466 5.39605 33.1998 6.09923 33.9025C6.80242 34.6053 7.75587 35 8.75 35H12.5C13.4946 35 14.4484 34.6049 15.1517 33.9017C15.8549 33.1984 16.25 32.2446 16.25 31.25V25C16.25 24.6685 16.3817 24.3505 16.6161 24.1161C16.8505 23.8817 17.1685 23.75 17.5 23.75H22.5C22.8315 23.75 23.1495 23.8817 23.3839 24.1161C23.6183 24.3505 23.75 24.6685 23.75 25V31.25C23.75 32.2446 24.1451 33.1984 24.8484 33.9017C25.5516 34.6049 26.5054 35 27.5 35H31.25C32.2446 35 33.1984 34.6049 33.9017 33.9017C34.6049 33.1984 35 32.2446 35 31.25V17.325C34.9998 16.8147 34.8956 16.3099 34.6935 15.8413C34.4915 15.3728 34.1959 14.9504 33.825 14.6L21.7175 3.15001V3.15501Z" fill="black"/>
</svg>
