<svg width="50" height="50" viewBox="0 0 50 50" fill="none" xmlns="http://www.w3.org/2000/svg">
<circle cx="25" cy="25" r="25" fill="#C4C4C4"/>
<g clip-path="url(#clip0)">
<path d="M34.0883 45C33.8083 45 33.5216 44.965 33.2383 44.89L7.46661 37.9883C5.69994 37.5017 4.64661 35.6717 5.10994 33.905L8.36161 21.785C8.48161 21.34 8.93828 21.0817 9.38161 21.195C9.82661 21.3133 10.0899 21.7717 9.97161 22.215L6.72161 34.3317C6.48994 35.215 7.01994 36.135 7.90494 36.38L33.6666 43.2783C34.5516 43.5117 35.4649 42.985 35.6949 42.105L36.9966 37.2817C37.1166 36.8367 37.5733 36.5717 38.0183 36.6933C38.4633 36.8133 38.7249 37.2717 38.6066 37.715L37.3066 42.5317C36.9149 44.015 35.5649 45 34.0883 45V45Z" fill="black"/>
<path d="M41.6666 35H15C13.1616 35 11.6666 33.505 11.6666 31.6666V11.6666C11.6666 9.82831 13.1616 8.33331 15 8.33331H41.6666C43.505 8.33331 45 9.82831 45 11.6666V31.6666C45 33.505 43.505 35 41.6666 35ZM15 9.99998C14.0816 9.99998 13.3333 10.7483 13.3333 11.6666V31.6666C13.3333 32.585 14.0816 33.3333 15 33.3333H41.6666C42.585 33.3333 43.3333 32.585 43.3333 31.6666V11.6666C43.3333 10.7483 42.585 9.99998 41.6666 9.99998H15Z" fill="black"/>
<path d="M20 20C18.1616 20 16.6666 18.505 16.6666 16.6666C16.6666 14.8283 18.1616 13.3333 20 13.3333C21.8383 13.3333 23.3333 14.8283 23.3333 16.6666C23.3333 18.505 21.8383 20 20 20ZM20 15C19.0816 15 18.3333 15.7483 18.3333 16.6666C18.3333 17.585 19.0816 18.3333 20 18.3333C20.9183 18.3333 21.6666 17.585 21.6666 16.6666C21.6666 15.7483 20.9183 15 20 15Z" fill="black"/>
<path d="M12.6167 33.2167C12.4034 33.2167 12.19 33.135 12.0267 32.9733C11.7017 32.6483 11.7017 32.12 12.0267 31.795L19.8984 23.9233C20.8417 22.98 22.49 22.98 23.4334 23.9233L25.7767 26.2667L32.2634 18.4833C32.735 17.9183 33.4284 17.59 34.1667 17.5833H34.185C34.915 17.5833 35.6067 17.9 36.0834 18.455L44.8 28.625C45.1 28.9733 45.06 29.5 44.71 29.8C44.3617 30.1 43.8367 30.0617 43.535 29.71L34.8184 19.54C34.6567 19.3533 34.4334 19.25 34.185 19.25C34.0117 19.235 33.7067 19.355 33.545 19.55L26.4734 28.035C26.3234 28.215 26.105 28.3233 25.87 28.3333C25.6334 28.35 25.4084 28.2567 25.2434 28.09L22.255 25.1017C21.94 24.7883 21.3917 24.7883 21.0767 25.1017L13.205 32.9733C13.0434 33.135 12.83 33.2167 12.6167 33.2167V33.2167Z" fill="black"/>
</g>
<defs>
<clipPath id="clip0">
<rect width="40" height="40" fill="white" transform="translate(5 5)"/>
</clipPath>
</defs>
</svg>
