<svg width="20" height="20" viewBox="0 0 20 20" fill="none" xmlns="http://www.w3.org/2000/svg">
<path d="M0.781445 20C0.582344 20 0.386289 19.9239 0.2375 19.7796C0.00917969 19.5583 -0.0621875 19.2207 0.0569922 18.9259L1.83086 14.5379C0.631328 12.9786 0 11.1494 0 9.21875C0 6.74316 1.04902 4.41965 2.95391 2.67621C4.83949 0.95043 7.34188 0 10 0C12.6581 0 15.1605 0.95043 17.0461 2.67621C18.951 4.41965 20 6.74316 20 9.21875C20 10.9941 19.4516 12.7179 18.414 14.2037C18.1669 14.5575 17.6799 14.644 17.3261 14.397C16.9723 14.1499 16.8859 13.6629 17.1329 13.3091C17.9864 12.0869 18.4375 10.6725 18.4375 9.21875C18.4375 4.99707 14.6525 1.5625 10 1.5625C5.34754 1.5625 1.5625 4.99707 1.5625 9.21875C1.5625 10.929 2.17098 12.5469 3.32211 13.8974C3.51094 14.1189 3.56098 14.4271 3.45184 14.697L2.2266 17.7278L5.79477 16.1549C5.99254 16.0678 6.21766 16.0664 6.41648 16.1512C7.54227 16.6315 8.74789 16.875 10 16.875C11.4411 16.875 12.8632 16.5396 14.1127 15.905C14.4975 15.7097 14.9677 15.8631 15.1631 16.2478C15.3584 16.6325 15.205 17.1027 14.8203 17.2981C13.3527 18.0435 11.6858 18.4375 10 18.4375C8.65312 18.4375 7.3502 18.1957 6.12203 17.7182L1.09641 19.9336C0.995078 19.9783 0.887812 20 0.781445 20ZM10.7812 12.6953V8.47656C10.7812 8.04508 10.4315 7.69531 10 7.69531C9.56852 7.69531 9.21875 8.04508 9.21875 8.47656V12.6953C9.21875 13.1268 9.56852 13.4766 10 13.4766C10.4315 13.4766 10.7812 13.1268 10.7812 12.6953ZM10 5C9.56852 5 9.21875 5.34977 9.21875 5.78125C9.21875 6.21273 9.56852 6.5625 10 6.5625C10.4315 6.5625 10.7812 6.21273 10.7812 5.78125C10.7812 5.34977 10.4315 5 10 5Z" fill="black"/>
</svg>
