<svg id="Flat" height="512" viewBox="0 0 512 512" width="512" xmlns="http://www.w3.org/2000/svg"><path d="m160 248 31.716-19.5c8.43-5.717 10.893-18.358 5.213-27.426-16.515-26.359-49.381-49.074-84.929-49.074s-68.414 22.715-84.929 49.077c-5.68 9.068-3.217 21.709 5.213 27.426l31.716 19.497z" fill="#d49073"/><path d="m112 256a8 8 0 0 1 -8-8v-40a8 8 0 0 1 16 0v40a8 8 0 0 1 -8 8z" fill="#ad6643"/><path d="m135.994 256a8 8 0 0 1 -7.149-11.58l16-32a8 8 0 0 1 14.31 7.156l-16 32a8 8 0 0 1 -7.161 4.424z" fill="#ad6643"/><path d="m88.006 256a8 8 0 0 1 -7.161-4.424l-16-32a8 8 0 1 1 14.31-7.156l16 32a8 8 0 0 1 -7.149 11.58z" fill="#ad6643"/><g fill="#ed8424"><path d="m224 96a40.045 40.045 0 0 1 -40-40v-16a8 8 0 0 1 16 0v16a24.027 24.027 0 0 0 24 24 8 8 0 1 1 0 16z"/><path d="m205.513 124.578a40.77 40.77 0 0 1 -7.4-.664 33.125 33.125 0 0 1 -24.205-18.025 7.706 7.706 0 0 1 -.386-.908l-5.064-14.311a8 8 0 1 1 15.082-5.34l4.888 13.807a17.014 17.014 0 0 0 12.592 9.043c5.906 1.091 12.979-.125 19.4-3.335a8 8 0 1 1 7.157 14.31 49.7 49.7 0 0 1 -22.064 5.423z"/><path d="m232 208h16a48 48 0 0 1 48 48 0 0 0 0 1 0 0h-16a48 48 0 0 1 -48-48 0 0 0 0 1 0 0z"/><path d="m280 256h16a0 0 0 0 1 0 0 48 48 0 0 1 -48 48h-16a0 0 0 0 1 0 0 48 48 0 0 1 48-48z"/></g><path d="m392 272h-92.021a20.93 20.93 0 0 1 0-41.816l92.869-5.365a24.417 24.417 0 0 0 23.569-24.4 24.417 24.417 0 0 0 -24.417-24.419h-80a96 96 0 0 1 -96-96h176a96 96 0 0 1 96 96c0 53.019-32 96-96 96z" fill="#ff8e26"/><path d="m432.02 265.23c-11.55 4.37-24.89 6.77-40.02 6.77h-40s-24.36-19.88-16.36-43.88l57.21-3.3a24.494 24.494 0 0 0 7.2-1.34c.01 0 .03-.01.04-.01.57 6.35 4.63 34.2 31.93 41.76z" fill="#ff750a"/><path d="m431.99 88.7c-.39 55.57-47.99 87.3-47.99 87.3h-72a96 96 0 0 1 -96-96h176a95.573 95.573 0 0 1 39.99 8.7z" fill="#ff8e26"/><path d="m487.99 175.34c-.32.12-24.19 32.42-71.58 24.72a24.4 24.4 0 0 0 -24.41-24.06h-8s47.6-31.73 47.99-87.3a95.985 95.985 0 0 1 56 86.64z" fill="#ff750a"/><circle cx="272" cy="112" fill="#ff750a" r="8"/><path d="m312.006 176a8 8 0 0 1 -3.646-15.126 34.1 34.1 0 0 0 7.492-6.049 55.533 55.533 0 0 0 12.558-21.356 8 8 0 0 1 15.18 5.059c-8.945 26.835-27.238 36.238-28.012 36.626a7.971 7.971 0 0 1 -3.572.846z" fill="#ff750a"/><path d="m24 312h16a80 80 0 0 1 80 80 0 0 0 0 1 0 0h-16a80 80 0 0 1 -80-80 0 0 0 0 1 0 0z" fill="#c3c6c7" transform="matrix(-1 0 0 -1 144 704)"/><path d="m104 392h16a0 0 0 0 1 0 0 80 80 0 0 1 -80 80h-16a0 0 0 0 1 0 0 80 80 0 0 1 80-80z" fill="#c3c6c7" transform="matrix(-1 0 0 -1 144 864)"/><path d="m352 312c104 24 136 80 136 80s-32 56-136 80a501.446 501.446 0 0 1 -88 8c-48 0-93.6-15.617-136-42.651a53.8 53.8 0 0 1 -24.928-45.349 53.8 53.8 0 0 1 24.928-45.349c42.4-27.034 88-42.651 136-42.651a501.446 501.446 0 0 1 88 8z" fill="#dadcde"/><path d="m488 392s-25.37 44.4-104.36 71.07c-2.38-6.18-15.64-41.94-15.64-71.07s13.26-64.89 15.64-71.07c78.99 26.67 104.36 71.07 104.36 71.07z" fill="#c3c6c7"/><circle cx="432" cy="384" fill="#9aa3a8" r="8"/><path d="m277.72 392c0 22.4 10.28 33.6 10.28 33.6l-61.71 22.4s-8.68-18.89-10.09-48q-.195-3.885-.2-8t.2-8c1.41-29.11 10.09-48 10.09-48l61.71 22.4s-10.28 11.2-10.28 33.6z" fill="#c3c6c7"/><path d="m240 392a8 8 0 0 1 -8 8h-15.8q-.195-3.885-.2-8t.2-8h15.8a8 8 0 0 1 8 8z" fill="#9aa3a8"/><path d="m64 248h96v24a16 16 0 0 1 -16 16c-8 0-16-8-32-8s-24 8-32 8a16 16 0 0 1 -16-16z" fill="#b37a60"/></svg>