<svg width="32" height="32" viewBox="0 0 32 32" fill="none" xmlns="http://www.w3.org/2000/svg">
<path d="M25.3333 14.6667H6.66667C5.19391 14.6667 4 15.8606 4 17.3333V26.6667C4 28.1394 5.19391 29.3333 6.66667 29.3333H25.3333C26.8061 29.3333 28 28.1394 28 26.6667V17.3333C28 15.8606 26.8061 14.6667 25.3333 14.6667Z" stroke="#444345" stroke-width="2" stroke-linecap="round" stroke-linejoin="round"/>
<path d="M9.33331 14.6667V9.33334C9.33331 7.56523 10.0357 5.86954 11.2859 4.61929C12.5362 3.36905 14.2319 2.66667 16 2.66667C17.7681 2.66667 19.4638 3.36905 20.714 4.61929C21.9643 5.86954 22.6666 7.56523 22.6666 9.33334V14.6667" stroke="#444345" stroke-width="2" stroke-linecap="round" stroke-linejoin="round"/>
</svg>
