<svg height="512pt" viewBox="-2 0 512 512.00089" width="512pt" xmlns="http://www.w3.org/2000/svg"><path d="m474.894531 120.175781c-26.203125-47.578125-69.773437-80.839843-118.960937-98.675781-14.289063-5.175781-28.503906-8.6875-43.332032-11.816406-5.320312-1.125-11.128906-2.371094-16.449218-3.332032-1.722656-.308593-3.441406-.648437-5.15625-1-3.433594-.707031-6.855469-1.46875-10.289063-2.183593-3.429687-.710938-6.878906-1.316407-10.34375-1.800781-15.136719-2.125-30.5625-1.859376-45.976562 1.429687-16.667969 3.558594-32.429688 10.808594-46.175781 21.230469-25.40625 19.265625-37.722657 49.914062-34.324219 82.265625 1.4375 13.699219 5.335937 27.566406.421875 41.035156-6.675782 18.28125-26.640625 25.539063-43.523438 33.371094-30.15625 13.984375-57.445312 36.261719-76.703125 64.214843-40.550781 58.851563-27.378906 148.582032 20.738281 199.265626 11.546876 12.164062 24.703126 22.757812 38.910157 31.652343 14.230469 8.910157 29.503906 16.125 45.335937 21.6875 15.925782 5.597657 32.429688 9.53125 49.144532 11.867188 8.347656 1.167969 16.753906 1.933593 25.175781 2.296875 4.796875.207031 9.597656.179687 14.394531.15625 2.34375-.007813 4.683594-.019532 7.023438 0 14.25.117187 28.5625.25 42.855468.085937 15.570313-.179687 31.113282-1.886719 46.429688-4.765625 21.378906-4.015625 41.921875-9.605468 61.828125-18.710937 6.730469-3.078125 13.300781-6.539063 19.671875-10.359375 74.140625-44.484375 111.890625-132.125 112.960937-218.464844.597657-48.351562-10.492187-97.378906-33.65625-139.449219zm0 0" fill="#704138"/><path d="m270.363281 1.367188c-15.136719-2.125-30.5625-1.859376-45.976562 1.429687-16.667969 3.558594-32.429688 10.808594-46.175781 21.230469-25.40625 19.265625-37.726563 49.914062-34.328126 82.261718 1.441407 13.703126 5.339844 27.570313.421876 41.035157-6.671876 18.285156-26.636719 25.542969-43.519532 33.371093-30.15625 13.988282-57.449218 36.265626-76.703125 64.214844-40.550781 58.855469-27.378906 148.585938 20.738281 199.269532 59.640626 62.824218 159.085938 81.175781 239.082032 58.320312 14.085937-4.023438 28.972656-7.90625 42.429687-13.820312 113.082031-49.683594 155.023438-198.808594 121.015625-314.777344-13.257812-45.210938-38.183594-86.066406-71.460937-118.265625-29.222657-28.28125-65.648438-48.671875-105.523438-54.269531zm0 0" fill="#e57670"/><path d="m326.335938 488.683594c-13.457032 5.914062-28.34375 9.796875-42.433594 13.8125-27.207032 7.777344-56.667969 10.78125-86.046875 8.882812 17.863281-1.136718 35.414062-4.109375 52.117187-8.882812 14.082032-4.015625 28.96875-7.902344 42.421875-13.8125 113.089844-49.6875 155.03125-198.816406 121.019531-314.785156-13.257812-45.210938-38.179687-86.0625-71.464843-118.261719-29.222657-28.28125-65.640625-48.671875-105.523438-54.269531-.707031-.101563-1.414062-.195313-2.121093-.285157 12.101562-1.578125 24.171874-1.382812 36.058593.285157 39.875 5.597656 76.300781 25.988281 105.527344 54.269531 33.273437 32.199219 58.203125 73.050781 71.464844 118.261719 34 115.96875-7.941407 265.097656-121.019531 314.785156zm0 0" fill="#e05c56"/><path d="m508.550781 259.628906c-1.066406 86.332032-38.816406 173.976563-112.964843 218.457032-6.363282 3.824218-12.933594 7.289062-19.664063 10.363281-19.910156 9.109375-40.457031 14.691406-61.832031 18.710937-15.320313 2.878906-30.855469 4.589844-46.433594 4.761719-3.164062.03125-6.421875-.195313-9.710938-.480469 11.3125-.707031 22.574219-2.183594 33.722657-4.28125 21.375-4.019531 41.921875-9.605468 61.832031-18.710937 6.730469-3.074219 13.300781-6.539063 19.664062-10.363281 74.136719-44.480469 111.898438-132.125 112.964844-218.457032.59375-48.355468-10.492187-97.378906-33.652344-139.453125-26.210937-47.578125-68.75-80.046875-117.933593-97.878906-3.464844-1.257813-8.035157-3.277344-11.542969-4.402344-11.832031-5.882812-24.1875-10.449219-37.019531-13.542969 8.566406 2.070313 18.53125 3.625 27.148437 5.441407 14.828125 3.136719 28.515625 6.527343 42.800782 11.710937 49.183593 17.832032 92.765624 51.09375 118.96875 98.671875 23.160156 42.074219 34.257812 91.09375 33.652343 139.453125zm0 0" fill="#633029"/><path d="m284.398438 45.914062c-16.53125-4.625-34.042969-4.515624-52.382813 2.746094-24.96875 9.882813-44.429687 31.886719-49.257813 59.5-4.179687 23.914063 8.933594 51.0625-4.855468 72.609375-12.96875 20.265625-39.390625 24.867188-58.640625 36.605469-27.628907 16.839844-51.859375 41.527344-64.496094 72.484375-18.785156 46.003906-7.425781 97.359375 29.011719 132.835937 41.339844 40.25 93.191406 50.394532 148.425781 44.417969 157.042969-16.996093 226.644531-212.90625 147.132813-345.359375-21.796876-36.308594-54.796876-64.601562-94.9375-75.839844zm0 0" fill="#ffc1b8"/><path d="m232.203125 467.113281c-14.804687 1.597657-29.367187 2.046875-43.550781 1.054688 4.078125-.257813 8.167968-.605469 12.289062-1.054688 157.035156-17 226.644532-212.90625 147.128906-345.359375-21.796874-36.308594-54.792968-64.601562-94.929687-75.839844-2.183594-.617187-4.386719-1.136718-6.609375-1.578124 13.105469-2.65625 25.75-1.816407 37.863281 1.578124 40.148438 11.238282 73.144531 39.535157 94.9375 75.839844 79.519531 132.453125 9.910157 328.359375-147.128906 345.359375zm0 0" fill="#ffb3a8"/><path d="m227.265625 173.753906c18.078125 7.722656 37.769531 1.3125 56.539063 2.753906 19.691406 1.511719 46.425781 20.875 66.109374 10.570313 30.4375-15.9375-6.800781-71.6875-20.777343-86.503906-20.40625-21.628907-51.742188-38.101563-80.980469-26.679688-18.992188 7.417969-29.332031 24.730469-33.183594 44.695313-1.820312 9.4375-2.503906 19.464844-2.128906 29.09375.589844 15.070312 6.207031 22.558594 14.421875 26.070312zm0 0" fill="#d33737"/><path d="m349.914062 187.078125c-5.175781 2.707031-10.84375 3.359375-16.734374 2.828125 14.164062-21.273438-16.394532-66.390625-28.753907-79.496094-17.398437-18.4375-42.730469-33.121094-67.925781-29.984375 3.449219-2.632812 7.335938-4.847656 11.660156-6.539062 29.234375-11.414063 60.570313 5.050781 80.972656 26.683593 13.976563 14.820313 51.214844 70.574219 20.78125 86.507813zm0 0" fill="#c42626"/><path d="m274.765625 225.480469c0-14.546875-11.359375-26.335938-25.371094-26.335938-14.007812 0-25.367187 11.789063-25.367187 26.335938 0 14.542969 11.359375 26.332031 25.367187 26.332031 14.011719 0 25.371094-11.789062 25.371094-26.332031zm0 0" fill="#704138"/><path d="m260.597656 249.105469c-10.859375 5.554687-23.691406 2.292969-30.964844-7.113281 5.605469 1.445312 11.722657.910156 17.308594-1.945313 12.570313-6.425781 17.738282-22.207031 11.546875-35.261719-.839843-1.761718-1.84375-3.394531-2.980469-4.867187 6.996094 1.8125 13.21875 6.679687 16.648438 13.925781 6.191406 13.042969 1.015625 28.835938-11.558594 35.261719zm0 0" fill="#633029"/><path d="m202.605469 254.917969c-10.828125-15.046875-26.167969-24.714844-44.996094-19.015625-12.875 3.902344-24.007813 12.398437-33.890625 21.808594-27.398438 26.082031-45.144531 58.972656-36.761719 98.582031 15.632813 73.855469 102.886719 84.746093 162.605469 74.503906 32.953125-5.652344 67.753906-28.890625 89.257812-55.714844 21.722657-27.09375 43.945313-75.828125 40.265626-112.101562-1.640626-16.125-11.324219-35.78125-28.617188-36.511719-29.875-1.257812-47.671875 26.957031-70.746094 41.527344-25.636718 16.183594-58.4375 13.144531-76.902344-12.777344-.070312-.097656-.140624-.199219-.214843-.300781zm0 0" fill="#d33737"/><path d="m338.824219 375.082031c-21.507813 26.828125-56.304688 50.058594-89.261719 55.714844-31.910156 5.472656-71.667969 4.917969-104.171875-8.066406 28.054687 6.828125 58.972656 6.34375 84.742187 1.917969 32.945313-5.65625 67.746094-28.886719 89.253907-55.714844 21.722656-27.09375 43.941406-75.828125 40.261719-112.101563-1.097657-10.761719-5.769532-23.089843-13.886719-30.3125 1.539062-.101562 3.105469-.125 4.703125-.050781 17.296875.726562 26.980468 20.382812 28.621094 36.511719 3.679687 36.273437-18.546876 85.007812-40.261719 112.101562zm0 0" fill="#c42626"/></svg>