<svg width="26" height="25" viewBox="0 0 26 25" fill="none" xmlns="http://www.w3.org/2000/svg">
<path d="M25.375 22.4417L25.0916 22.1917C24.2878 21.4755 23.5843 20.6542 23 19.75C22.3618 18.5021 21.9793 17.1393 21.875 15.7417V11.625C21.8805 9.42967 21.0841 7.30789 19.6356 5.6583C18.187 4.00872 16.1859 2.94487 14.0083 2.66666V1.59166C14.0083 1.2966 13.8911 1.01363 13.6824 0.805C13.4738 0.596366 13.1908 0.479156 12.8958 0.479156C12.6007 0.479156 12.3178 0.596366 12.1091 0.805C11.9005 1.01363 11.7833 1.2966 11.7833 1.59166V2.68332C9.62517 2.9816 7.64827 4.05187 6.21873 5.69591C4.7892 7.33995 4.0039 9.44636 4.00829 11.625V15.7417C3.90392 17.1393 3.52144 18.5021 2.88329 19.75C2.30903 20.6519 1.61679 21.4731 0.824959 22.1917L0.541626 22.4417V24.7917H25.375V22.4417Z" fill="#505050"/>
</svg>
