<svg width="40" height="40" viewBox="0 0 40 40" fill="none" xmlns="http://www.w3.org/2000/svg">
<path d="M36.5 31.2556L36.1222 30.9222C35.0505 29.9673 34.1124 28.8723 33.3334 27.6667C32.4825 26.0028 31.9725 24.1858 31.8334 22.3222V16.8333C31.8407 13.9062 30.7789 11.0772 28.8475 8.87775C26.9161 6.67831 24.248 5.25985 21.3445 4.8889V3.45556C21.3445 3.06216 21.1882 2.68487 20.91 2.40669C20.6318 2.12851 20.2545 1.97223 19.8611 1.97223C19.4677 1.97223 19.0904 2.12851 18.8123 2.40669C18.5341 2.68487 18.3778 3.06216 18.3778 3.45556V4.91112C15.5003 5.30882 12.8644 6.73585 10.9584 8.9279C9.05235 11.12 8.00528 13.9285 8.01114 16.8333V22.3222C7.87198 24.1858 7.362 26.0028 6.51114 27.6667C5.74545 28.8693 4.82247 29.9642 3.76669 30.9222L3.38892 31.2556V34.3889H36.5V31.2556Z" fill="#444345"/>
<path d="M17.0222 35.5555C17.1197 36.2599 17.4687 36.9051 18.0048 37.3722C18.5409 37.8392 19.2279 38.0965 19.9389 38.0965C20.6499 38.0965 21.3369 37.8392 21.873 37.3722C22.4091 36.9051 22.7581 36.2599 22.8556 35.5555H17.0222Z" fill="#444345"/>
</svg>
