<svg width="40" height="36" viewBox="0 0 40 36" fill="none" xmlns="http://www.w3.org/2000/svg">
<path d="M20 10C19.264 10.0115 18.5334 10.1284 17.8305 10.3472C18.1557 10.919 18.3288 11.5645 18.3333 12.2222C18.3333 12.7329 18.2327 13.2386 18.0373 13.7104C17.8419 14.1823 17.5554 14.611 17.1943 14.9721C16.8332 15.3332 16.4045 15.6197 15.9327 15.8151C15.4608 16.0105 14.9551 16.1111 14.4444 16.1111C13.7867 16.1066 13.1412 15.9335 12.5694 15.6083C12.1183 17.1728 12.1709 18.8395 12.7197 20.3724C13.2685 21.9053 14.2857 23.2267 15.6272 24.1494C16.9687 25.072 18.5665 25.5492 20.1943 25.5134C21.8221 25.4775 23.3973 24.9304 24.6969 23.9495C25.9964 22.9687 26.9544 21.6038 27.4352 20.0482C27.9159 18.4926 27.895 16.8252 27.3755 15.2821C26.8559 13.7391 25.864 12.3986 24.5403 11.4506C23.2166 10.5026 21.6282 9.9951 20 10ZM39.7583 16.7639C35.9924 9.41599 28.5368 4.44446 20 4.44446C11.4632 4.44446 4.00555 9.41946 0.241659 16.7646C0.0827994 17.0788 3.05176e-05 17.426 3.05176e-05 17.7781C3.05176e-05 18.1303 0.0827994 18.4774 0.241659 18.7917C4.00763 26.1396 11.4632 31.1111 20 31.1111C28.5368 31.1111 35.9944 26.1361 39.7583 18.791C39.9172 18.4767 40 18.1296 40 17.7774C40 17.4253 39.9172 17.0781 39.7583 16.7639ZM20 27.7778C13.1493 27.7778 6.86874 23.9583 3.47708 17.7778C6.86874 11.5972 13.1486 7.77779 20 7.77779C26.8514 7.77779 33.1312 11.5972 36.5229 17.7778C33.1319 23.9583 26.8514 27.7778 20 27.7778Z" fill="#B3ECF2"/>
</svg>
