<svg height="512pt" viewBox="0 -18 512.02637 512" width="512pt" xmlns="http://www.w3.org/2000/svg"><path d="m344.296875 428.109375v30.011719c0 9.710937-39.546875 17.65625-88.273437 17.65625-48.730469 0-88.277344-7.945313-88.277344-17.65625v-30.011719zm0 0" fill="#3d324c"/><path d="m70.378906 157.632812c-43.609375 15.003907-70.3554685 35.398438-70.3554685 57.730469-.015625.765625.015625 1.53125.0859375 2.296875 1.148437 126.851563 106.726563 222.804688 255.914063 222.804688 149.183593 0 254.761718-95.953125 255.910156-222.804688.074218-.765625.105468-1.53125.089844-2.296875 0-46.34375-114.582032-83.863281-256-83.863281-44.542969-.242188-89.003907 3.808594-132.769532 12.09375zm0 0" fill="#7d6599"/><path d="m61.816406 308.054688c0 4.875-3.953125 8.824218-8.828125 8.824218s-8.828125-3.949218-8.828125-8.824218c0-4.878907 3.953125-8.828126 8.828125-8.828126s8.828125 3.949219 8.828125 8.828126zm0 0" fill="#b49aca"/><path d="m70.378906 157.632812c-43.609375 15.003907-70.3554685 35.398438-70.3554685 57.730469-.015625.765625.015625 1.53125.0859375 2.296875.511719 5.523438 2.460937 10.820313 5.652344 15.359375 24.804687 37.871094 127.382812 66.207031 250.261719 66.207031 122.878906 0 225.457031-28.335937 250.261718-66.207031 3.191406-4.539062 5.140625-9.835937 5.648438-15.359375.074218-.765625.105468-1.53125.089844-2.296875 0-46.34375-114.582032-83.863281-256-83.863281-44.542969-.242188-89.003907 3.808594-132.769532 12.09375zm0 0" fill="#b49aca"/><path d="m256.023438 263.914062c-128.617188 0-204.464844-30.726562-219.472657-48.550781 4.230469-4.742187 16.773438-14.34375 44.136719-23.914062l50.511719-13.425781c41.160156-7.675782 82.957031-11.429688 124.824219-11.210938 131.945312 0 206.625 32.660156 219.507812 48.339844-16.21875 18.5-91.871094 48.761718-219.507812 48.761718zm0 0" fill="#3d324c"/><path d="m142.324219 178.730469-17.480469-32.222657c-.527344-.882812-1.058594-1.941406-1.589844-2.914062-15.269531-28.863281-44.929687-93.128906-55.875-120.9375-.527344-1.390625-1.148437-2.75-1.855468-4.058594-9.101563-17.078125-30.316407-23.558594-47.402344-14.476562-16.9375 9.382812-23.09375 30.695312-13.773438 47.667968.691406 1.296876 1.488282 2.539063 2.382813 3.707032 15.007812 21.1875 47.316406 73.269531 63.648437 102.136718 1.941406 3.265626 3.617188 6.265626 5.03125 8.914063l12.359375 22.773437 1.410157 2.738282zm0 0" fill="#bdc3c7"/><path d="m220.710938 413.984375c-.421876 0-.84375-.03125-1.261719-.089844-77.734375-11.148437-125.261719-45.726562-151.453125-72.78125-3.390625-3.507812-3.300782-9.097656.207031-12.488281 3.503906-3.390625 9.09375-3.296875 12.484375.207031 24.261719 25.070313 68.46875 57.140625 141.242188 67.585938 4.582031.652343 7.882812 4.730469 7.5625 9.347656-.320313 4.617187-4.152344 8.203125-8.78125 8.21875zm0 0" fill="#b49aca"/><path d="m441.3125 235.402344c-36.546875 14.742187-99.042969 28.511718-185.289062 28.511718-90.835938 0-155.453126-15.359374-190.765626-30.628906 5.183594-18.019531 15.5625-34.109375 29.839844-46.257812l.085938-.089844c11.589844-8.46875 26.089844-11.933594 40.253906-9.621094h.089844c8.085937 1.300782 15.957031 3.707032 23.390625 7.148438 59.410156 26.394531 54.644531-1.5 70.621093-17.210938 7.148438-6.652344 16.75-10.015625 26.484376-9.269531 11.417968-.835937 22.75 2.519531 31.867187 9.445313v.089843c15.269531 12.886719 14.035156 34.601563 38.753906 34.601563 27.453125 0 46.433594-24.011719 75.296875-15.09375 21.3125 7.246094 36.605469 26.035156 39.371094 48.375zm0 0" fill="#f9eab0"/><g fill="#24ae5f"><path d="m141.265625 210.949219c0 4.875-3.953125 8.828125-8.828125 8.828125s-8.828125-3.953125-8.828125-8.828125 3.953125-8.828125 8.828125-8.828125 8.828125 3.953125 8.828125 8.828125zm0 0"/><path d="m282.503906 210.949219c0 4.875-3.949218 8.828125-8.824218 8.828125-4.878907 0-8.828126-3.953125-8.828126-8.828125s3.949219-8.828125 8.828126-8.828125c4.875 0 8.824218 3.953125 8.824218 8.828125zm0 0"/><path d="m326.644531 228.605469c0 4.875-3.953125 8.828125-8.828125 8.828125s-8.828125-3.953125-8.828125-8.828125 3.953125-8.828125 8.828125-8.828125 8.828125 3.953125 8.828125 8.828125zm0 0"/><path d="m247.195312 219.777344c0 4.875-3.953124 8.828125-8.828124 8.828125s-8.828126-3.953125-8.828126-8.828125 3.953126-8.828125 8.828126-8.828125 8.828124 3.953125 8.828124 8.828125zm0 0"/><path d="m388.4375 219.777344c0 4.875-3.953125 8.828125-8.828125 8.828125s-8.828125-3.953125-8.828125-8.828125 3.953125-8.828125 8.828125-8.828125 8.828125 3.953125 8.828125 8.828125zm0 0"/></g></svg>