<svg id="Flat" height="512" viewBox="0 0 512 512" width="512" xmlns="http://www.w3.org/2000/svg"><path d="m384 136v240a32 32 0 0 1 -32 32h-80a64 64 0 0 1 -64-64v-2.745a32 32 0 0 0 -9.373-22.628l-29.254-29.254a32 32 0 0 1 -9.373-22.628v-98.745a96 96 0 0 1 96-96h64a64 64 0 0 1 64 64z" fill="#fc9495"/><path d="m256 104h64a32 32 0 0 1 32 32v224a16 16 0 0 1 -16 16h-64a32 32 0 0 1 -32-32v-18.745a32 32 0 0 0 -9.373-22.628l-29.254-29.254a32 32 0 0 1 -9.373-22.628v-82.745a64 64 0 0 1 64-64z" fill="#e74444"/><circle cx="296" cy="160" fill="#fae8d8" r="24"/><path d="m168 424-48-16-48 16 24-56v-24h48v24z" fill="#606669"/><path d="m120 48s96 32 96 112c0 74.273-20.687 127.859-62.06 167.16a31.953 31.953 0 0 0 -9.94 23.169v17.671h-48v-17.671a31.953 31.953 0 0 0 -9.94-23.169c-41.373-39.301-62.06-92.887-62.06-167.16 0-80 96-112 96-112" fill="#99a2a7"/><path d="m128 160h48a0 0 0 0 1 0 0v24a24 24 0 0 1 -24 24 24 24 0 0 1 -24-24v-24a0 0 0 0 1 0 0z" fill="#606669"/><path d="m488 392c0-24-24-56-80-56s-56 56-56 56 0 56 56 56 80-32 80-56z" fill="#deb89a"/><path d="m336 328c-24 0-56 24-56 80s56 56 56 56 56 0 56-56-32-80-56-80z" fill="#f5cbaa"/><path d="m80 136v185.14c-37.33-38.7-56-90.59-56-161.14a94.163 94.163 0 0 1 3.05-24z" fill="#606669"/><path d="m216 160h-192c0-80 96-112 96-112s96 32 96 112z" fill="#757c80"/><circle cx="112" cy="104" fill="#606669" r="16"/></svg>