<svg id="Layer_1" enable-background="new 0 0 497 497" height="512" viewBox="0 0 497 497" width="512" xmlns="http://www.w3.org/2000/svg"><circle cx="280.224" cy="79.215" fill="#00c070" r="79.211"/><circle cx="417.789" cy="216.78" fill="#00c070" r="79.211"/><path d="m468.87 144.831c-32.225 32.225-122.817 70.57-155.042 38.345s6.12-122.817 38.345-155.042 84.472-32.225 116.697 0 32.225 84.472 0 116.697z" fill="#2ddfb6"/><path d="m331.715 174.723c-1.919 0-3.839-.732-5.304-2.197-2.929-2.929-2.929-7.678 0-10.607l85.353-85.353c2.93-2.929 7.678-2.929 10.607 0s2.929 7.678 0 10.607l-85.353 85.353c-1.464 1.465-3.384 2.197-5.303 2.197z" fill="#00c070"/><path d="m259.685 136.544c-3.574 0-6.74-2.564-7.379-6.206-10.913-62.226 12.54-91.857 13.544-93.088 2.617-3.21 7.342-3.691 10.552-1.073 3.197 2.607 3.688 7.303 1.105 10.512-.355.457-20.018 26.37-10.426 81.058.715 4.08-2.013 7.967-6.092 8.683-.438.076-.874.114-1.304.114z" fill="#2ddfb6"/><path d="m398.332 247.586c-9.424 0-19.965-.836-31.667-2.889-4.079-.716-6.807-4.603-6.092-8.683.716-4.079 4.601-6.808 8.684-6.092 55.539 9.741 80.77-10.191 81.019-10.394 3.21-2.618 7.935-2.137 10.552 1.073 2.618 3.21 2.138 7.935-1.073 10.552-1 .816-20.731 16.433-61.423 16.433z" fill="#2ddfb6"/><path d="m346.23 152.708c-58.926-59.991-156.099-58.705-215.153 1.16-109.04 110.536-128.305 246.837-131.045 309.113-.841 19.125 14.944 34.827 34.069 33.982 62.715-2.771 200.303-22.299 311.164-133.16 58.238-58.237 58.559-152.46.965-211.095z" fill="#ffaa78"/><path d="m346.23 152.708c-3.667-3.733-7.483-7.229-11.428-10.488 48.82 58.911 45.647 146.399-9.537 201.584-110.861 110.86-248.449 130.389-311.164 133.159-4.316.191-8.458-.468-12.281-1.812 4.605 13.149 17.434 22.468 32.281 21.812 62.715-2.771 200.303-22.299 311.164-133.16 58.238-58.238 58.559-152.46.965-211.095z" fill="#ff8c46"/><g fill="#423c4d"><path d="m137.728 259.363c-1.919 0-3.839-.732-5.304-2.197-2.929-2.929-2.929-7.678 0-10.607l9.753-9.753c2.93-2.929 7.678-2.929 10.607 0s2.929 7.678 0 10.607l-9.753 9.753c-1.464 1.464-3.384 2.197-5.303 2.197z"/><path d="m203.338 326.733c-8.957 0-17.577-3.542-23.946-9.911-6.919-6.919-10.503-16.497-9.831-26.276.284-4.132 3.864-7.252 7.996-6.969 4.133.284 7.252 3.864 6.969 7.996-.374 5.452 1.62 10.789 5.474 14.642 3.853 3.853 9.192 5.848 14.642 5.473 4.141-.283 7.713 2.836 7.996 6.969.284 4.132-2.836 7.712-6.969 7.996-.779.054-1.556.08-2.331.08z"/><path d="m257.809 378.9c-1.92 0-3.839-.732-5.304-2.197-2.929-2.929-2.929-7.678 0-10.607 1.603-1.602 2.485-3.733 2.485-5.999s-.883-4.397-2.485-5.999c-3.307-3.307-8.69-3.308-11.997 0-2.931 2.929-7.679 2.928-10.607 0-2.929-2.929-2.929-7.678 0-10.607 9.156-9.156 24.055-9.156 33.211 0 4.437 4.436 6.879 10.333 6.879 16.606s-2.442 12.17-6.878 16.605c-1.465 1.466-3.385 2.198-5.304 2.198z"/></g></svg>