<svg width="30" height="30" viewBox="0 0 30 30" fill="none" xmlns="http://www.w3.org/2000/svg">
<path d="M4.06075 2.97105L26.6357 13.7678C26.8639 13.8768 27.0566 14.0481 27.1915 14.262C27.3264 14.4759 27.3979 14.7235 27.3979 14.9764C27.3979 15.2293 27.3264 15.4769 27.1915 15.6908C27.0566 15.9047 26.8639 16.076 26.6357 16.185L4.06075 26.9818C3.82932 27.0926 3.57092 27.1346 3.3163 27.1028C3.06167 27.0711 2.82154 26.9668 2.62446 26.8025C2.42739 26.6381 2.28168 26.4206 2.20466 26.1759C2.12765 25.9311 2.12257 25.6693 2.19003 25.4218L4.4486 17.1418C4.47625 17.0403 4.53316 16.9492 4.61223 16.8798C4.6913 16.8105 4.78903 16.7659 4.89325 16.7518L15.8325 15.2657C15.8783 15.2592 15.9215 15.241 15.9581 15.2128C15.9947 15.1846 16.0234 15.1475 16.0415 15.105L16.0607 15.0385C16.0692 14.9787 16.0572 14.9178 16.0266 14.8657C15.9961 14.8136 15.9488 14.7733 15.8925 14.7514L15.8336 14.7353L4.90503 13.2493C4.80101 13.2349 4.70351 13.1903 4.62464 13.1209C4.54578 13.0516 4.48904 12.9606 4.46146 12.8593L2.19003 4.53212C2.12229 4.28447 2.12717 4.02257 2.20407 3.77762C2.28097 3.53266 2.42665 3.31497 2.62378 3.15048C2.8209 2.98598 3.06116 2.88161 3.31592 2.8498C3.57069 2.81799 3.82923 2.86007 4.06075 2.97105Z" fill="#909090"/>
</svg>
