<svg width="36" height="40" viewBox="0 0 36 40" fill="none" xmlns="http://www.w3.org/2000/svg">
<g clip-path="url(#clip0_1809_527)">
<path d="M30.9215 39.998C31.8051 39.9579 32.6435 39.5956 33.2782 38.9795C33.9129 38.3635 34.3 37.5363 34.3665 36.6543L34.3786 36.4334L35.6695 10.4544C35.6695 10.4409 35.6695 10.4281 35.6695 10.4159C35.6695 10.2133 35.589 10.019 35.4457 9.87571C35.3025 9.73244 35.1081 9.65195 34.9055 9.65195H26.6295C26.4269 4.28187 22.5766 0.00201416 17.8368 0.00201416C13.0969 0.00201416 9.24666 4.28389 9.04402 9.65195H0.749781C0.549632 9.65566 0.358942 9.73779 0.218723 9.88066C0.078505 10.0235 -3.44989e-05 10.2157 1.1368e-08 10.4159C1.1368e-08 10.4362 1.1368e-08 10.4558 1.1368e-08 10.4747L1.17534 36.3544L1.19357 36.6786C1.37393 38.4802 2.68909 39.921 4.47844 39.9959H30.7878L30.9215 39.998ZM17.8368 2.33445C21.2817 2.33445 24.0924 5.57676 24.2241 9.64992H11.4575C11.5791 5.58284 14.3918 2.33445 17.8368 2.33445Z" fill="#EE4E2C"/>
<path d="M24.4087 29.959C24.3024 30.8948 23.945 31.7845 23.3742 32.5337C22.8033 33.2829 22.0405 33.8637 21.1664 34.2145C20.0696 34.6591 18.8894 34.8603 17.7072 34.8042C16.066 34.7489 14.4569 34.3338 12.9937 33.5883C12.3231 33.2205 11.6898 32.7882 11.1031 32.2975C10.9693 32.186 10.9004 32.0948 11.0301 31.9064C11.1598 31.7179 11.709 30.9195 11.7941 30.7898C11.8184 30.7501 11.8515 30.7165 11.8909 30.6917C11.9303 30.667 11.9748 30.6516 12.0211 30.6469C12.0674 30.6422 12.1142 30.6483 12.1578 30.6646C12.2013 30.681 12.2406 30.7072 12.2723 30.7412L12.5074 30.9215C13.9961 32.1102 15.8191 32.8038 17.7214 32.9054C20.2525 32.871 22.0904 31.7443 22.4167 29.9975C22.7774 28.0744 21.2434 26.4228 18.2868 25.5028C17.3465 25.211 14.9837 24.2707 14.548 24.0154C12.4851 22.8239 11.5225 21.2554 11.6603 19.31C11.863 16.625 14.3758 14.6127 17.5573 14.5985C18.9967 14.6018 20.4209 14.8932 21.746 15.4557C22.3157 15.7043 22.8634 16.0006 23.3833 16.3413C23.424 16.3623 23.4598 16.3919 23.488 16.428C23.5163 16.4641 23.5366 16.5059 23.5473 16.5504C23.5581 16.595 23.5591 16.6414 23.5504 16.6864C23.5417 16.7314 23.5234 16.774 23.4968 16.8114C23.3712 17.014 22.9963 17.6017 22.8463 17.8449C22.7369 18.011 22.6011 18.0293 22.4066 17.9077C20.9824 16.957 19.3121 16.4415 17.5998 16.4243C15.4275 16.4669 13.7881 17.7496 13.6807 19.5086C13.6523 21.0973 14.8682 22.2504 17.4458 23.1298C22.7734 24.83 24.7897 26.8281 24.4087 29.959Z" fill="white"/>
</g>
<defs>
<clipPath id="clip0_1809_527">
<rect width="35.6756" height="40" fill="white"/>
</clipPath>
</defs>
</svg>
