<svg width="40" height="40" viewBox="0 0 40 40" fill="none" xmlns="http://www.w3.org/2000/svg">
<path d="M35.4728 13.793L25.5548 12.3516L21.1212 3.3633C21.0001 3.1172 20.8009 2.91798 20.5548 2.79689C19.9376 2.4922 19.1876 2.74611 18.879 3.3633L14.4454 12.3516L4.52748 13.793C4.25404 13.832 4.00404 13.961 3.81263 14.1563C3.58123 14.3941 3.45372 14.7141 3.45812 15.0459C3.46251 15.3777 3.59845 15.6942 3.83607 15.9258L11.0119 22.9219L9.31654 32.8008C9.27678 33.0306 9.30221 33.2669 9.38995 33.483C9.47768 33.6991 9.6242 33.8863 9.8129 34.0234C10.0016 34.1604 10.2249 34.2418 10.4576 34.2584C10.6902 34.275 10.9228 34.2261 11.129 34.1172L20.0001 29.4531L28.8712 34.1172C29.1134 34.2461 29.3947 34.2891 29.6642 34.2422C30.3439 34.125 30.8009 33.4805 30.6837 32.8008L28.9884 22.9219L36.1642 15.9258C36.3595 15.7344 36.4884 15.4844 36.5275 15.211C36.6329 14.5274 36.1564 13.8945 35.4728 13.793Z" fill="#DFDFDF"/>
</svg>
