<svg width="30" height="30" viewBox="0 0 30 30" fill="none" xmlns="http://www.w3.org/2000/svg">
<path d="M17.8125 24.375C17.8125 25.1209 17.5162 25.8363 16.9887 26.3637C16.4613 26.8912 15.7459 27.1875 15 27.1875C14.2541 27.1875 13.5387 26.8912 13.0113 26.3637C12.4838 25.8363 12.1875 25.1209 12.1875 24.375C12.1875 23.6291 12.4838 22.9137 13.0113 22.3863C13.5387 21.8588 14.2541 21.5625 15 21.5625C15.7459 21.5625 16.4613 21.8588 16.9887 22.3863C17.5162 22.9137 17.8125 23.6291 17.8125 24.375ZM17.8125 15C17.8125 15.7459 17.5162 16.4613 16.9887 16.9887C16.4613 17.5162 15.7459 17.8125 15 17.8125C14.2541 17.8125 13.5387 17.5162 13.0113 16.9887C12.4838 16.4613 12.1875 15.7459 12.1875 15C12.1875 14.2541 12.4838 13.5387 13.0113 13.0113C13.5387 12.4838 14.2541 12.1875 15 12.1875C15.7459 12.1875 16.4613 12.4838 16.9887 13.0113C17.5162 13.5387 17.8125 14.2541 17.8125 15ZM17.8125 5.625C17.8125 6.37092 17.5162 7.08629 16.9887 7.61374C16.4613 8.14118 15.7459 8.4375 15 8.4375C14.2541 8.4375 13.5387 8.14118 13.0113 7.61374C12.4838 7.08629 12.1875 6.37092 12.1875 5.625C12.1875 4.87908 12.4838 4.16371 13.0113 3.63626C13.5387 3.10882 14.2541 2.8125 15 2.8125C15.7459 2.8125 16.4613 3.10882 16.9887 3.63626C17.5162 4.16371 17.8125 4.87908 17.8125 5.625Z" fill="#505050"/>
</svg>
