<svg width="32" height="32" viewBox="0 0 32 32" fill="none" xmlns="http://www.w3.org/2000/svg">
<path d="M16 9C15.4112 9.01035 14.8267 9.11559 14.2644 9.3125C14.5245 9.82707 14.663 10.4081 14.6666 11C14.6666 11.4596 14.5862 11.9148 14.4298 12.3394C14.2735 12.764 14.0443 13.1499 13.7554 13.4749C13.4665 13.7999 13.1236 14.0577 12.7461 14.2336C12.3686 14.4095 11.9641 14.5 11.5555 14.5C11.0294 14.4959 10.5129 14.3401 10.0555 14.0475C9.69465 15.4555 9.73671 16.9555 10.1757 18.3351C10.6148 19.7148 11.4285 20.904 12.5017 21.7344C13.5749 22.5648 14.8532 22.9943 16.1554 22.962C17.4576 22.9297 18.7178 22.4373 19.7575 21.5546C20.7971 20.6718 21.5635 19.4434 21.9481 18.0434C22.3327 16.6433 22.316 15.1427 21.9004 13.7539C21.4847 12.3652 20.6912 11.1587 19.6322 10.3055C18.5733 9.45232 17.3025 8.99558 16 9ZM31.8066 15.0875C28.7939 8.47437 22.8294 4 16 4C9.17053 4 3.20441 8.4775 0.193303 15.0881C0.0662151 15.3709 0 15.6834 0 16.0003C0 16.3172 0.0662151 16.6297 0.193303 16.9125C3.20608 23.5256 9.17053 28 16 28C22.8294 28 28.7955 23.5225 31.8066 16.9119C31.9337 16.6291 31.9999 16.3166 31.9999 15.9997C31.9999 15.6828 31.9337 15.3703 31.8066 15.0875ZM16 25C10.5194 25 5.49497 21.5625 2.78164 16C5.49497 10.4375 10.5189 7 16 7C21.4811 7 26.505 10.4375 29.2183 16C26.5055 21.5625 21.4811 25 16 25Z" fill="#B3ECF2"/>
</svg>
