<svg width="40" height="40" viewBox="0 0 40 40" fill="none" xmlns="http://www.w3.org/2000/svg">
<path d="M20 3.33334C10.965 3.33334 3.33337 10.965 3.33337 20C3.33337 25.315 5.98671 30.13 10 33.2067V33.3333H10.17C12.95 35.4083 16.355 36.6667 20 36.6667C23.645 36.6667 27.05 35.4083 29.83 33.3333H30V33.2067C34.0134 30.13 36.6667 25.3167 36.6667 20C36.6667 10.965 29.035 3.33334 20 3.33334ZM13.4567 31.545C13.7023 30.434 14.3193 29.4399 15.2058 28.7266C16.0924 28.0134 17.1955 27.6237 18.3334 27.6217H21.6667C22.8045 27.624 23.9075 28.0138 24.794 28.727C25.6805 29.4402 26.2975 30.4341 26.5434 31.545C24.5967 32.6733 22.36 33.3333 20 33.3333C17.64 33.3333 15.4034 32.6733 13.4567 31.545ZM29.35 29.4017C28.7143 27.8881 27.6463 26.5957 26.2796 25.6862C24.9129 24.7766 23.3084 24.2904 21.6667 24.2883H18.3334C16.6917 24.2904 15.0872 24.7766 13.7205 25.6862C12.3538 26.5957 11.2858 27.8881 10.65 29.4017C8.20504 26.97 6.66671 23.6267 6.66671 20C6.66671 12.7717 12.7717 6.66668 20 6.66668C27.2284 6.66668 33.3334 12.7717 33.3334 20C33.3334 23.6267 31.795 26.97 29.35 29.4017Z" fill="black"/>
<path d="M20 10C16.2 10 13.3334 12.8667 13.3334 16.6667C13.3334 20.4667 16.2 23.3333 20 23.3333C23.8 23.3333 26.6667 20.4667 26.6667 16.6667C26.6667 12.8667 23.8 10 20 10ZM20 20C18.0367 20 16.6667 18.63 16.6667 16.6667C16.6667 14.7033 18.0367 13.3333 20 13.3333C21.9634 13.3333 23.3334 14.7033 23.3334 16.6667C23.3334 18.63 21.9634 20 20 20Z" fill="black"/>
</svg>
