<svg width="40" height="40" viewBox="0 0 40 40" fill="none" xmlns="http://www.w3.org/2000/svg">
<path d="M19.9999 3.33331C10.9649 3.33331 3.33325 10.965 3.33325 20C3.33325 25.315 5.98659 30.13 9.99992 33.2066V33.3333H10.1699C12.9499 35.4083 16.3549 36.6666 19.9999 36.6666C23.6449 36.6666 27.0499 35.4083 29.8299 33.3333H29.9999V33.2066C34.0133 30.13 36.6666 25.3166 36.6666 20C36.6666 10.965 29.0349 3.33331 19.9999 3.33331ZM13.4566 31.545C13.7022 30.434 14.3192 29.4399 15.2057 28.7266C16.0922 28.0134 17.1954 27.6236 18.3333 27.6216H21.6666C22.8043 27.6239 23.9074 28.0138 24.7938 28.727C25.6803 29.4402 26.2974 30.4341 26.5433 31.545C24.5966 32.6733 22.3599 33.3333 19.9999 33.3333C17.6399 33.3333 15.4033 32.6733 13.4566 31.545ZM29.3499 29.4016C28.7142 27.8881 27.6461 26.5957 26.2795 25.6861C24.9128 24.7766 23.3082 24.2904 21.6666 24.2883H18.3333C16.6916 24.2904 15.087 24.7766 13.7204 25.6861C12.3537 26.5957 11.2857 27.8881 10.6499 29.4016C8.20492 26.97 6.66659 23.6266 6.66659 20C6.66659 12.7716 12.7716 6.66665 19.9999 6.66665C27.2283 6.66665 33.3333 12.7716 33.3333 20C33.3333 23.6266 31.7949 26.97 29.3499 29.4016Z" fill="#444345"/>
<path d="M19.9999 10C16.1999 10 13.3333 12.8667 13.3333 16.6667C13.3333 20.4667 16.1999 23.3333 19.9999 23.3333C23.7999 23.3333 26.6666 20.4667 26.6666 16.6667C26.6666 12.8667 23.7999 10 19.9999 10ZM19.9999 20C18.0366 20 16.6666 18.63 16.6666 16.6667C16.6666 14.7033 18.0366 13.3333 19.9999 13.3333C21.9633 13.3333 23.3333 14.7033 23.3333 16.6667C23.3333 18.63 21.9633 20 19.9999 20Z" fill="#444345"/>
</svg>
