<svg enable-background="new 0 0 256 256" height="512" viewBox="0 0 256 256" width="512" xmlns="http://www.w3.org/2000/svg"><g id="Layer_1"><g><g><path d="m91.248 224.449c9.465 9.465 20.764 16.006 32.745 19.602-4.931 1.233-10.076 2.129-15.374 2.669-51.591 5.324-98.979-20.446-98.979-73.212 0-47.64 38.624-86.264 86.264-86.264 32.765 0 61.262 18.267 75.852 45.175 1.375 2.517 2.618 5.115 3.739 7.774h.01z" fill="#f0c020"/></g><g><path d="m201.944 113.754c-4.879 4.879-105.837 105.837-110.696 110.695 30.518 30.518 80.087 30.609 110.696 0 30.565-30.564 30.565-80.13 0-110.695z" fill="#f8e5b0"/></g><g><path d="m91.248 224.449c9.465 9.465 20.764 16.006 32.745 19.602-4.931 1.233-10.076 2.129-15.374 2.669-15.884-7.743-26.315-19.688-25.298-18.669-1.986-1.99-1.985-5.213.003-7.201l88.432-88.432c1.375 2.517 2.618 5.115 3.739 7.774h.01z" fill="#e8a61e"/></g><g><path d="m208.719 169.107c0 54.842-66.795 83.197-106.06 43.931l87.864-87.863c12.144 12.144 18.206 28.038 18.196 43.932z" fill="#fc5d3d"/></g><g><path d="m118.121 87.244h-25.548v-5.977c0-11.874 9.626-21.5 21.5-21.5h25.548v5.977c0 11.874-9.626 21.5-21.5 21.5z" fill="#13bf6d"/></g><g><g><path d="m233.806 82.413c-14.024 14.024-35.283 16.397-51.763 7.119-1.063-.593-2.101-1.244-3.123-1.936l-14.469 3.008 3.008-14.469c-10.226-15.013-9.962-35.028.807-49.777 15.815-21.586 46.87-23.769 65.54-5.109 16.892 16.891 16.892 44.272 0 61.164z" fill="#72c2e9"/></g><g><path d="m204.122 79.417c-16.037 0-25.611-10.311-25.611-27.581 0-17.279 9.574-27.595 25.611-27.595 10.897 0 19.06 4.895 22.987 13.785 1.3 2.944-.033 6.384-2.977 7.684-2.94 1.3-6.383-.032-7.684-2.976-1.296-2.936-3.984-6.839-12.325-6.839-3.452 0-13.957 0-13.957 15.941 0 15.927 10.505 15.927 13.957 15.927 8.66 0 11.323-4.238 12.572-7.426 1.174-2.997 4.559-4.473 7.551-3.299 2.997 1.174 4.474 4.556 3.299 7.552-3.748 9.561-12.066 14.827-23.423 14.827z" fill="#efefef"/></g></g><g><g><path d="m67.476 233.157c-1.33-.38-2.652-.791-3.929-1.221-1.309-.44-2.012-1.858-1.571-3.167s1.86-2.011 3.167-1.571c1.204.405 2.451.793 3.708 1.152 1.328.379 2.096 1.763 1.717 3.091-.383 1.337-1.779 2.096-3.092 1.716zm-13.477-5.121c-50.381-24.582-41.207-94.204 4.345-120.31 1.198-.688 2.726-.272 3.412.926.687 1.198.272 2.726-.926 3.412-42.145 24.155-51.318 88.702-4.639 111.478 1.241.605 1.756 2.103 1.15 3.344-.603 1.237-2.096 1.757-3.342 1.15z" fill="#f8e5b0"/></g><g><path d="m146.624 221.738c-5.268 0-10.485-.778-15.506-2.314-1.32-.403-2.063-1.802-1.659-3.122.403-1.32 1.802-2.061 3.122-1.659 4.547 1.391 9.272 2.096 14.044 2.096 12.7 0 24.649-4.955 33.646-13.952 8.999-8.999 13.955-20.952 13.955-33.66 0-8.757-2.37-17.286-6.853-24.667-.717-1.18-.341-2.718.839-3.435 1.181-.715 2.718-.34 3.435.839 4.958 8.163 7.58 17.591 7.58 27.263 0 14.043-5.476 27.253-15.419 37.195-9.944 9.94-23.149 15.416-37.184 15.416zm-25.174-6.371c-.708-.385-1.409-.787-2.101-1.207-1.181-.717-1.557-2.254-.84-3.435s2.254-1.554 3.434-.841c.625.379 1.256.742 1.895 1.09 1.213.659 1.662 2.177 1.003 3.39-.66 1.213-2.178 1.661-3.391 1.003z" fill="#ffcbc3"/></g><path d="m224.21 158.663c-1.354.144-2.378 1.333-2.23 2.74.26 2.56.39 5.149.39 7.699-.034 66.166-79.24 100.611-127.56 55.32l7.88-7.88c41.085 38.089 108.53 8.88 108.53-47.479 0 0 0 0 0-.011 0-16.078-6.048-31.802-17.2-43.85l7.89-7.89c6.91 7.369 12.18 15.869 15.69 25.279.47 1.25 1.95 1.94 3.21 1.471 1.313-.48 1.951-1.93 1.48-3.221-4.06-10.88-10.31-20.59-18.58-28.859-.94-.94-2.59-.94-3.53 0-8.943 8.943-8.005 8.005-23.891 23.891-7.651-16.233-19.62-29.313-34.349-38.272-5.827-3.541-12.025-6.37-18.461-8.471 10.659-2.443 18.641-12.001 18.641-23.389v-5.98c0-1.39-1.148-2.5-2.5-2.5h-25.55c-7.725.006-14.607 3.681-19 9.369v-15.377c0-1.38-1.12-2.5-2.5-2.5s-2.5 1.12-2.5 2.5v33.685c-12.7.829-24.699 4.32-35.36 9.926-1.199.629-1.698 2.134-1.05 3.37.64 1.207 2.12 1.696 3.36 1.06.01 0 .01 0 .02-.01 10.177-5.341 21.491-8.521 33.03-9.328v10.826c-2.601-.478-5.015-1.692-6.97-3.548-.97-.92-2.62-.87-3.54.09-.972 1.036-.876 2.624.1 3.54 3.49 3.319 8.08 5.149 12.91 5.149s9.42-1.83 12.92-5.149c1-.95 1.04-2.54.09-3.54-.92-.96-2.56-1.01-3.53-.09-1.963 1.856-4.378 3.071-6.98 3.548v-11.026c33.288-.348 63.75 19.045 77.452 49.875-20.192 20.195-65.245 65.255-83.042 83.051-.97.971-.97 2.561 0 3.53 7.178 7.178 15.631 13.013 25.326 17.157-2.123.343-4.268.641-6.436.864-24.924 2.585-52.099-2.145-71.61-17.65-36.049-28.717-30.9-85.848 4.28-116.37 1.04-.91 1.16-2.49.25-3.53-.87-1-2.52-1.119-3.52-.25-37.506 32.472-42.761 93.478-4.12 124.061 20.579 16.349 49.078 21.457 75.22 18.71 5.153-.526 10.21-1.391 15.058-2.575 51.871 15.081 103.442-23.75 103.442-77.525 0-2.729-.14-5.489-.42-8.21-.14-1.36-1.38-2.37-2.74-2.231zm-122.4-73.919 18.34-10.71c1.19-.7 1.59-2.23.9-3.42-.67-1.15-2.27-1.57-3.42-.9l-22.56 13.174v-1.625c.02-10.46 8.54-18.979 19-19h23.05v3.48c-.02 10.46-8.54 18.979-19 19h-16.31zm88.671 44.008c9.39 10.193 15.085 23.446 15.677 37.848h-53.525zm15.677 42.848c-.594 14.599-6.343 27.713-15.667 37.854l-37.863-37.854zm-57.068 3.524 37.862 37.87c-10.561 9.695-23.867 15.105-37.862 15.678zm-4.99.009v53.542c-13.955-.573-27.416-6.07-37.867-15.676 0 .001 37.774-37.772 37.867-37.866z"/><path d="m223.39 153.723c1.34-.31 2.18-1.659 1.87-3-.31-1.319-1.66-2.18-3-1.87-1.34.32-2.18 1.66-1.87 2.99v.021c.335 1.404 1.76 2.191 3 1.859z"/><path d="m51.48 142.944c0 1.38 1.12 2.5 2.5 2.5 1.37 0 2.5-1.12 2.5-2.5v-1.53c0-1.38-1.13-2.5-2.5-2.5-1.38 0-2.5 1.12-2.5 2.5z"/><path d="m158.06 194.614c-1.38 0-2.5 1.12-2.5 2.5v1.529c0 1.381 1.12 2.5 2.5 2.5s2.5-1.119 2.5-2.5v-1.529c0-1.38-1.12-2.5-2.5-2.5z"/><path d="m41.48 175.853v1.53c0 3.301 5 3.305 5 0v-1.53c0-1.38-1.12-2.5-2.5-2.5s-2.5 1.12-2.5 2.5z"/><path d="m134.32 130.973v-1.529c0-1.38-1.12-2.5-2.5-2.5s-2.5 1.12-2.5 2.5v1.529c0 1.38 1.12 2.5 2.5 2.5s2.5-1.12 2.5-2.5z"/><path d="m108.85 154.154v-1.53c0-1.38-1.12-2.5-2.5-2.5s-2.5 1.12-2.5 2.5v1.53c0 1.38 1.12 2.5 2.5 2.5s2.5-1.12 2.5-2.5z"/><path d="m178.51 150.123c-1.38 0-2.5 1.12-2.5 2.5v1.53c0 1.38 1.12 2.5 2.5 2.5s2.5-1.12 2.5-2.5v-1.53c0-1.379-1.12-2.5-2.5-2.5z"/><path d="m77.5 199.404v-1.53c0-1.37-1.12-2.49-2.5-2.49s-2.5 1.12-2.5 2.49v1.53c0 1.38 1.12 2.5 2.5 2.5s2.5-1.12 2.5-2.5z"/><path d="m48.73 104.284c1.099-.74 1.454-2.305.65-3.47-.75-1.101-2.37-1.41-3.48-.66v.01c-1.13.78-1.42 2.33-.65 3.47.79 1.143 2.348 1.431 3.48.65z"/><path d="m166.248 24.883c-11.152 15.273-11.69 35.94-1.449 51.764l-2.795 13.448c-.367 1.766 1.201 3.32 2.957 2.956l13.448-2.795c.821.532 1.617 1.013 2.408 1.455 17.79 10.015 40.307 6.92 54.757-7.53 17.838-17.838 17.838-46.862 0-64.701-19.798-19.787-52.652-17.355-69.326 5.403zm65.791 55.763c-12.87 12.87-32.923 15.63-48.775 6.704-.955-.533-1.917-1.13-2.939-1.823-.559-.379-1.247-.517-1.912-.378l-10.737 2.231 2.232-10.737c.138-.664 0-1.355-.381-1.916-9.665-14.19-9.36-33.035.758-46.892 14.86-20.281 44.122-22.442 61.755-4.819 15.887 15.889 15.887 41.741-.001 57.63z"/><path d="m225.16 54.713c-3.934-1.597-8.992.13-10.79 4.71-1.773 4.448-5.178 5.825-10.25 5.84-8.519.052-11.394-4.708-11.46-13.43.06-7.91 2.63-10.56 4.55-11.85 2.28-1.5 5.13-1.601 6.91-1.591 3.2.011 5.61.61 7.35 1.851 1.47 1.06 2.18 2.359 2.69 3.5 1.907 4.296 6.899 6.076 10.98 4.25 4.164-1.847 6.133-6.717 4.26-10.98-2.08-4.77-5.47-8.67-9.8-11.3-4.3-2.6-9.57-3.97-15.25-3.97-2.08 0-4.11.14-6.03.45-1.36.229-2.28 1.52-2.06 2.88.22 1.34 1.51 2.27 2.86 2.06h.02c1.56-.26 3.24-.39 4.98-.39 10.1.07 17.07 4.2 20.7 12.29.776 1.756-.098 3.682-1.7 4.39-1.655.732-3.649-.012-4.38-1.7-1.05-2.39-2.48-4.199-4.36-5.54-2.57-1.85-6-2.79-10.2-2.79-3.441 0-6.617.412-9.7 2.4-4.44 2.84-6.87 8.54-6.82 16.04-.074 11.08 4.876 18.37 16.24 18.43 7.054 0 12.517-2.319 15.12-9.01.64-1.659 2.561-2.578 4.3-1.89 1.656.642 2.584 2.501 1.9 4.319-3.49 8.69-10.59 13.141-21.1 13.23-15.112-.021-23.09-9.643-23.11-25.08 0-6.09 1.24-11.25 3.68-15.31.708-1.189.319-2.739-.86-3.431-1.14-.68-2.75-.279-3.43.86-2.91 4.85-4.39 10.87-4.39 17.88-.019 18.004 10.131 30.08 28.04 30.08 13.069 0 22.022-6.531 25.82-16.41 1.682-4.333-.421-9.105-4.71-10.788z"/><path d="m190.77 30.223c1.155-.741 1.514-2.276.76-3.449-.71-1.131-2.32-1.49-3.45-.761-1.16.74-1.5 2.29-.76 3.45.768 1.202 2.354 1.475 3.45.76z"/></g></g></g></svg>