<svg width="32" height="32" viewBox="0 0 32 32" fill="none" xmlns="http://www.w3.org/2000/svg">
<g clip-path="url(#clip0_1122_1808)">
<path d="M32 16C32 20.2568 30.3474 24.2632 27.3469 27.2812C24.3481 30.2969 20.3562 31.9724 16.105 31.9993C16.0945 31.9993 16.083 32 16.0725 31.9993C16.0488 32 16.0244 32 16 32C11.7268 32 7.70874 30.3362 4.68677 27.3137C1.66431 24.292 0 20.2737 0 16C0 11.7263 1.66431 7.70874 4.68677 4.68628C7.70874 1.66431 11.7268 0 16 0C16.0244 0 16.0481 0 16.0725 0.000732425C16.0837 0.000732425 16.095 0.000732425 16.1062 0.0012207C20.3569 0.0288086 24.3486 1.70386 27.3469 4.71948C30.3474 7.73755 32 11.7437 32 16Z" fill="#FFABAC"/>
<path d="M32 16C32 20.2568 30.3474 24.2632 27.3469 27.2812C24.3481 30.2969 20.3562 31.9724 16.105 31.9993C16.0945 31.9993 16.083 32 16.0725 31.9993V0.000732422C16.0837 0.000732422 16.095 0.000732422 16.1062 0.0012207C20.3569 0.0288086 24.3486 1.70386 27.3469 4.71948C30.3474 7.73755 32 11.7437 32 16Z" fill="#FC9495"/>
<path d="M16.0792 6.73777C16.1053 6.73728 16.0565 6.73777 16.0792 6.73777V6.73777Z" fill="black"/>
<path d="M18.7451 9.40381V16.5562C18.7451 18.0264 17.5493 19.2224 16.0793 19.2224H16.0725C15.3857 19.2024 14.6768 18.925 14.1938 18.4419C13.6907 17.9382 13.4131 17.2688 13.4131 16.5562V9.40381C13.4131 7.94995 14.6201 6.7793 16.0725 6.73755H16.0793C17.5493 6.73755 18.7451 7.93384 18.7451 9.40381Z" fill="white"/>
<path d="M16.0791 19.2227C16.0564 19.2227 16.1018 19.2231 16.0791 19.2227V19.2227Z" fill="black"/>
<path d="M18.6025 22.6025C18.6025 23.9944 17.4707 25.1262 16.0789 25.1262H16.0725C14.6843 25.123 13.5557 23.9924 13.5557 22.6025C13.5557 21.2131 14.6843 20.0825 16.0725 20.0793H16.0789C17.4707 20.0793 18.6025 21.2112 18.6025 22.6025Z" fill="white"/>
<path d="M18.6025 22.6025C18.6025 23.9944 17.4707 25.1262 16.0789 25.1262H16.0725V20.0793H16.0789C17.4707 20.0793 18.6025 21.2112 18.6025 22.6025Z" fill="#DDEBF0"/>
<path d="M18.7451 9.40381V16.5562C18.7451 18.0264 17.5493 19.2224 16.0793 19.2224H16.0725V6.73755H16.0793C17.5493 6.73755 18.7451 7.93384 18.7451 9.40381Z" fill="#DDEBF0"/>
</g>
<defs>
<clipPath id="clip0_1122_1808">
<rect width="32" height="32" fill="white"/>
</clipPath>
</defs>
</svg>
