<svg width="40" height="40" viewBox="0 0 40 40" fill="none" xmlns="http://www.w3.org/2000/svg">
<path d="M35 5H32.9703C34.2531 7.20937 35 9.76641 35 12.5C35 20.7711 28.2711 27.5 20 27.5C11.7289 27.5 5 20.7711 5 12.5C5 9.76641 5.74688 7.20937 7.02969 5H5C2.24297 5 0 7.24297 0 10V35C0 37.757 2.24297 40 5 40H35C37.757 40 40 37.757 40 35V10C40 7.24297 37.757 5 35 5ZM20 25C26.9039 25 32.5 19.4039 32.5 12.5C32.5 5.59609 26.9039 0 20 0C13.0961 0 7.5 5.59609 7.5 12.5C7.5 19.4039 13.0961 25 20 25ZM19.9766 13.1297L22.6 7.00781C22.8734 6.36953 23.6109 6.07656 24.243 6.35078C24.8773 6.62266 25.1711 7.35781 24.9 7.99141L22.2695 14.1281C22.7914 14.6875 23.125 15.4258 23.125 16.25C23.125 17.9758 21.7258 19.375 20 19.375C18.2742 19.375 16.875 17.9758 16.875 16.25C16.875 14.5328 18.2625 13.143 19.9766 13.1297Z" fill="#85B4F2"/>
</svg>
